<?xml version="1.0" encoding="UTF-8"?>
<svg xmlns="http://www.w3.org/2000/svg" xmlns:xlink="http://www.w3.org/1999/xlink" width="145.257pt" height="29.6257pt" viewBox="0 0 145.257 29.6257" version="1.1">
<defs>
<symbol id="c" overflow="visible">
<path d="m7-11.078c1.5938 0.17969 2.8945 0.75781 3.9062 1.7344 1.0703 1.043 1.6094 2.3203 1.6094 3.8281v0.03125c0 1.5547-0.53125 2.8516-1.5938 3.8906-1.0625 1.0625-2.3594 1.5938-3.8906 1.5938-1.543 0-2.8398-0.53125-3.8906-1.5938-1.0742-1.082-1.6094-2.3633-1.6094-3.8438v-0.15625l1.9531-0.85938v1.0625c0 0.96875 0.34766 1.7969 1.0469 2.4844 0.69531 0.6875 1.5312 1.0312 2.5 1.0312 0.98828 0 1.8281-0.34375 2.5156-1.0312 0.6875-0.69531 1.0312-1.5312 1.0312-2.5 0-1.0195-0.33594-1.8477-1-2.4844-0.76172-0.71875-1.5938-1.1094-2.5-1.1719-1.543-0.125-2.7578-0.62891-3.6406-1.5156-0.90625-0.89453-1.3594-1.9844-1.3594-3.2656s0.44531-2.3672 1.3438-3.2656c0.89453-0.88281 1.9766-1.3281 3.25-1.3281 1.2812 0 2.3633 0.44531 3.25 1.3281 0.90625 0.91797 1.3594 2 1.3594 3.25v0.125l-1.9531 0.875v-0.95312c-0.023437-0.75781-0.28125-1.3906-0.78125-1.8906-0.53125-0.51953-1.1562-0.78125-1.875-0.78125-0.73047 0-1.3438 0.25781-1.8438 0.76562-0.52344 0.53125-0.78125 1.1562-0.78125 1.875 0 0.73047 0.25781 1.3555 0.78125 1.875 0.47656 0.48047 1.2031 0.77734 2.1719 0.89062z"/>
</symbol>
<symbol id="g" overflow="visible">
<path d="m4.375-4.625c0 0.75 0.26953 1.375 0.8125 1.875 0.55078 0.51172 1.1797 0.76562 1.8906 0.76562 0.6875 0 1.2891-0.25391 1.8125-0.76562 0.5-0.48828 0.75781-1.1133 0.78125-1.875v-4.4219c-0.023437-0.75781-0.28125-1.3828-0.78125-1.875-0.52344-0.50781-1.1719-0.76562-1.9531-0.76562-0.6875 0-1.2891 0.25781-1.7969 0.76562-0.51172 0.5-0.76562 1.1016-0.76562 1.7969zm-1.9531-4.4531c0-1.2695 0.44531-2.3516 1.3438-3.25 0.89453-0.89453 1.9727-1.3438 3.2344-1.3438 1.2695 0 2.3594 0.44922 3.2656 1.3438 0.90625 0.89844 1.3594 1.9805 1.3594 3.25v4.4844c0 1.2734-0.45312 2.3555-1.3594 3.25-0.90625 0.89844-1.9961 1.3438-3.2656 1.3438-1.2617 0-2.3398-0.44531-3.2344-1.3438-0.89844-0.89453-1.3438-1.9766-1.3438-3.25z"/>
</symbol>
<symbol id="f" overflow="visible">
<path d="m7.1094-1.9844c0.67578 0 1.2695-0.25391 1.7812-0.76562 0.51953-0.50781 0.78125-1.125 0.78125-1.8438v-0.03125-8.1875s0.64844-0.28516 1.9531-0.85938v9.0781c0 1.2734-0.44922 2.3555-1.3438 3.25-0.89844 0.89844-1.9805 1.3438-3.25 1.3438-1.2734 0-2.3594-0.44531-3.2656-1.3438-0.89844-0.89453-1.3438-1.9766-1.3438-3.25v-8.2188l1.9531-0.85938v9.0469c0.007812 0.76172 0.26953 1.3867 0.78125 1.875 0.51953 0.51172 1.1719 0.76562 1.9531 0.76562z"/>
</symbol>
<symbol id="e" overflow="visible">
<path d="m2.4219 0v-9.0781c0-1.2695 0.44531-2.3516 1.3438-3.25 0.89453-0.89453 1.9727-1.3438 3.2344-1.3438 1.3008 0 2.3906 0.44922 3.2656 1.3438 0.90625 0.92969 1.3594 2.0117 1.3594 3.25v0.046875l-1.9531 0.85938v-0.875c-0.023437-0.75781-0.28125-1.3828-0.78125-1.875-0.52344-0.50781-1.1367-0.76562-1.8438-0.76562-0.74219 0-1.3711 0.25781-1.8906 0.76562-0.52344 0.51172-0.78125 1.125-0.78125 1.8438v0.03125 8.1875z"/>
</symbol>
<symbol id="b" overflow="visible">
<path d="m4.375-4.625c0 0.75 0.26953 1.375 0.8125 1.875 0.55078 0.51172 1.1797 0.76562 1.8906 0.76562 0.6875 0 1.2891-0.25391 1.8125-0.76562 0.5-0.48828 0.75781-1.1133 0.78125-1.875v-0.17188l1.9531-0.875v1.0781c0 1.1484-0.49219 2.2422-1.4688 3.2812-0.83594 0.875-1.8867 1.3125-3.1562 1.3125-1.2617 0-2.3398-0.44531-3.2344-1.3438-0.89844-0.89453-1.3438-1.9766-1.3438-3.25v-4.4844c0-1.2695 0.44531-2.3516 1.3438-3.25 0.89453-0.89453 1.9727-1.3438 3.2344-1.3438 1.2891 0 2.3789 0.44922 3.2656 1.3438 0.90625 0.89844 1.3594 1.9805 1.3594 3.25v0.125l-1.9531 0.875v-0.96875c-0.023437-0.75781-0.28125-1.3828-0.78125-1.875-0.52344-0.50781-1.1367-0.76562-1.8438-0.76562-0.74219 0-1.3711 0.25781-1.8906 0.76562-0.52344 0.51172-0.78125 1.125-0.78125 1.8438v0.03125z"/>
</symbol>
<symbol id="a" overflow="visible">
<path d="m7.0781-1.9844c0.6875 0 1.2891-0.25391 1.8125-0.76562 0.5-0.48828 0.75781-1.1133 0.78125-1.875v-0.17188l1.9531-0.875v1.0781c0 1.1484-0.49219 2.2422-1.4688 3.2812-0.83594 0.875-1.8867 1.3125-3.1562 1.3125-1.2617 0-2.3398-0.44531-3.2344-1.3438-0.89844-0.89453-1.3438-1.9766-1.3438-3.25v-4.4844c0-1.2695 0.44531-2.3516 1.3438-3.25 0.89453-0.89453 1.9727-1.3438 3.2344-1.3438 1.2266 0 2.3164 0.44922 3.2656 1.3438 0.90625 0.84375 1.3594 1.9297 1.3594 3.25v1.1406l-7.25 3.2188c0 0.78125 0.25391 1.4336 0.76562 1.9531 0.50781 0.52344 1.1562 0.78125 1.9375 0.78125zm-0.14062-9.7031c-0.6875 0-1.2891 0.25781-1.7969 0.76562-0.51172 0.51172-0.76562 1.125-0.76562 1.8438v0.03125 2.2031l5.2812-2.3594c-0.042969-0.6875-0.29688-1.2578-0.76562-1.7188-0.52344-0.50781-1.1719-0.76562-1.9531-0.76562z"/>
</symbol>
<symbol id="d" overflow="visible">
<path d="m4.375-4.625c0 0.75 0.26953 1.375 0.8125 1.875 0.55078 0.51172 1.1797 0.76562 1.8906 0.76562 0.6875 0 1.2891-0.25391 1.8125-0.76562 0.5-0.48828 0.75781-1.1133 0.78125-1.875v-4.4219c-0.023437-0.75781-0.28125-1.3828-0.78125-1.875-0.52344-0.50781-1.1719-0.76562-1.9531-0.76562-0.6875 0-1.2891 0.25781-1.7969 0.76562-0.51172 0.5-0.76562 1.1016-0.76562 1.7969zm-1.9531 9.3906v-13.844c0-1.2695 0.44531-2.3516 1.3438-3.25 0.90625-0.89453 1.9922-1.3438 3.2656-1.3438 1.2695 0 2.3516 0.44922 3.25 1.3438 0.89453 0.89844 1.3438 1.9805 1.3438 3.25v4.4844c0 1.2734-0.44922 2.3555-1.3438 3.25-0.89844 0.89844-1.9805 1.3438-3.25 1.3438-1 0-1.8867-0.27344-2.6562-0.82812v4.75z"/>
</symbol>
</defs>
<g fill="#E43B5C">
<use x="2.438" y="22.2072" xlink:href="#c"/>
<use x="16.488" y="22.2072" xlink:href="#g"/>
<use x="30.538" y="22.2072" xlink:href="#f"/>
<use x="44.588" y="22.2072" xlink:href="#e"/>
<use x="58.638" y="22.2072" xlink:href="#b"/>
<use x="72.688" y="22.2072" xlink:href="#a"/>
<use x="86.738" y="22.2072" xlink:href="#c"/>
<use x="100.788" y="22.2072" xlink:href="#d"/>
<use x="114.838" y="22.2072" xlink:href="#a"/>
<use x="128.888" y="22.2072" xlink:href="#b"/>
</g>
</svg>
