<?xml version="1.0" encoding="UTF-8"?>
<svg xmlns="http://www.w3.org/2000/svg" xmlns:xlink="http://www.w3.org/1999/xlink" width="220.122pt" height="41.3746pt" viewBox="0 0 220.122 41.3746" version="1.1">
<style type="text/css">
  .st0{fill:#FFFFFF;}
  .st1{fill:none;stroke:#FFFFFF;stroke-width:2;stroke-linecap:round;stroke-miterlimit:10;}
</style>
<symbol id="c" viewBox="-5.5 -9.2 11 18.4">
  <path class="st0" d="m0-1.9c1.6 0.2 2.9 0.8 3.9 1.7 1.1 1 1.6 2.3 1.6 3.8 0 1.6-0.5 2.9-1.6 3.9-1.1 1.2-2.4 1.7-3.9 1.7s-2.8-0.5-3.9-1.6-1.6-2.3-1.6-3.8v-0.2l2-0.9v1.1c0 1 0.3 1.8 1 2.5s1.5 1 2.5 1 1.8-0.3 2.5-1 1-1.5 1-2.5-0.3-1.8-1-2.5-1.5-1.1-2.4-1.1c-1.6-0.2-2.8-0.7-3.7-1.6s-1.4-2-1.4-3.3 0.5-2.3 1.4-3.2 2-1.3 3.2-1.3c1.3 0 2.4 0.4 3.2 1.3 0.9 0.9 1.4 2 1.4 3.2v0.1l-2 0.9v-1c0.1-0.7-0.2-1.3-0.7-1.8s-1.1-0.8-1.9-0.8c-0.7 0-1.3 0.3-1.8 0.8s-0.8 1.2-0.8 1.9 0.3 1.4 0.8 1.9c0.5 0.4 1.2 0.7 2.2 0.8z"/>
</symbol>
<symbol id="g" viewBox="-4.6 -6.8 9.2 13.7">
  <path class="st0" d="m-2.6 2.2c0 0.8 0.3 1.4 0.8 1.9 0.6 0.5 1.2 0.8 1.9 0.8s1.3-0.3 1.8-0.8 0.7-1.1 0.7-1.9v-4.4c0-0.8-0.3-1.4-0.8-1.9s-1.2-0.8-2-0.8c-0.7 0-1.3 0.3-1.8 0.8-0.4 0.5-0.6 1.1-0.6 1.8v4.5zm-2-4.4c0-1.3 0.4-2.4 1.3-3.2 0.9-0.9 2-1.3 3.2-1.3 1.3 0 2.4 0.4 3.3 1.3s1.4 2 1.4 3.2v4.5c0 1.3-0.5 2.4-1.4 3.2-0.9 0.9-2 1.3-3.2 1.3-1.3 0-2.3-0.4-3.2-1.3s-1.3-2-1.3-3.2v-4.5z"/>
</symbol>
<symbol id="f" viewBox="-4.6 -6.8 9.2 13.7">
  <path class="st0" d="m0.1 4.9c0.7 0 1.3-0.3 1.8-0.8s0.7-1.1 0.7-1.9v-8.2s0.6-0.3 2-0.9v9.1c0 1.3-0.4 2.4-1.3 3.2-0.9 1-2 1.4-3.3 1.4s-2.4-0.4-3.3-1.3-1.3-2-1.3-3.2v-8.3l2-0.9v9c0 0.8 0.3 1.4 0.8 1.9 0.5 0.6 1.1 0.9 1.9 0.9z"/>
</symbol>
<symbol id="e" viewBox="-4.6 -6.8 9.2 13.7">
  <path class="st0" d="m-4.6 6.8v-9.1c0-1.3 0.4-2.4 1.3-3.2 0.9-0.9 2-1.3 3.2-1.3 1.3 0 2.4 0.4 3.3 1.3s1.4 2 1.4 3.2l-2 0.9v-0.9c0-0.8-0.3-1.4-0.8-1.9-0.5-0.4-1.1-0.7-1.8-0.7s-1.4 0.3-1.9 0.8-0.7 1.1-0.7 1.9v8.2l-2 0.8z"/>
</symbol>
<symbol id="b" viewBox="-4.6 -6.8 9.2 13.7">
  <path class="st0" d="m-2.6 2.2c0 0.8 0.3 1.4 0.8 1.9 0.6 0.5 1.2 0.8 1.9 0.8s1.3-0.3 1.8-0.8 0.7-1.1 0.7-1.9v-0.2l2-0.9v1.1c0 1.1-0.5 2.2-1.5 3.3-0.8 0.9-1.9 1.3-3.1 1.3-1.3 0-2.3-0.4-3.2-1.3s-1.3-2-1.3-3.2v-4.5c0-1.3 0.4-2.4 1.3-3.2 0.9-0.9 2-1.3 3.2-1.3 1.3 0 2.4 0.4 3.3 1.3s1.4 2 1.4 3.2v0.1l-2 0.9v-1c0-0.8-0.3-1.4-0.8-1.9-0.6-0.5-1.2-0.8-1.9-0.8s-1.4 0.3-1.9 0.8-0.7 1.1-0.7 1.9v4.4z"/>
</symbol>
<symbol id="a" viewBox="-4.6 -6.8 9.2 13.7">
  <path class="st0" d="m0.1 4.9c0.7 0 1.3-0.3 1.8-0.8s0.7-1.1 0.7-1.9v-0.2l2-0.9v1.1c0 1.1-0.5 2.2-1.5 3.3-0.8 0.9-1.9 1.3-3.1 1.3-1.3 0-2.3-0.4-3.2-1.3s-1.3-2-1.3-3.2v-4.5c0-1.3 0.4-2.4 1.3-3.2 0.9-0.9 2-1.3 3.2-1.3s2.3 0.4 3.3 1.3c0.9 0.8 1.4 1.9 1.4 3.2v1.1l-7.2 3.2c0 0.8 0.3 1.4 0.8 2 0.3 0.5 1 0.8 1.8 0.8zm-0.2-9.8c-0.7 0-1.3 0.3-1.8 0.8s-0.7 1.1-0.7 1.9v2.2l5.3-2.4c0-0.7-0.3-1.3-0.8-1.7-0.6-0.5-1.2-0.8-2-0.8z"/>
</symbol>
<symbol id="d" viewBox="-4.6 -9.2 9.2 18.4">
  <path class="st0" d="m-2.6-0.2c0 0.8 0.3 1.4 0.8 1.9 0.6 0.5 1.2 0.8 1.9 0.8s1.3-0.3 1.8-0.8 0.8-1.1 0.8-1.9v-4.4c0-0.8-0.3-1.4-0.8-1.9-0.6-0.5-1.2-0.7-2-0.7-0.7 0-1.3 0.3-1.8 0.8-0.5 0.4-0.7 1-0.7 1.7v4.5zm-2 9.4v-13.8c0-1.3 0.4-2.4 1.3-3.2 0.9-0.9 2-1.3 3.3-1.3s2.4 0.4 3.2 1.3c0.9 0.9 1.3 2 1.3 3.2v4.5c0 1.3-0.4 2.4-1.3 3.2-0.8 0.9-1.9 1.4-3.2 1.4-1 0-1.9-0.3-2.7-0.8v4.8l-1.9 0.7z"/>
</symbol>
<use transform="translate(50.731 18.862)" x="-5.5" y="-9.2" width="11" height="18.4" xlink:href="#c"/>
<use transform="translate(64.781 21.245)" x="-4.6" y="-6.8" width="9.2" height="13.7" xlink:href="#g"/>
<use transform="translate(78.831 21.245)" x="-4.6" y="-6.8" width="9.2" height="13.7" xlink:href="#f"/>
<use transform="translate(92.881 21.245)" x="-4.6" y="-6.8" width="9.2" height="13.7" xlink:href="#e"/>
<use transform="translate(106.93 21.245)" x="-4.6" y="-6.8" width="9.2" height="13.7" xlink:href="#b"/>
<use transform="translate(120.98 21.245)" x="-4.6" y="-6.8" width="9.2" height="13.7" xlink:href="#a"/>
<use transform="translate(135.03 18.862)" x="-5.5" y="-9.2" width="11" height="18.4" xlink:href="#c"/>
<use transform="translate(149.08 23.628)" x="-4.6" y="-9.2" width="9.2" height="18.4" xlink:href="#d"/>
<use transform="translate(163.13 21.245)" x="-4.6" y="-6.8" width="9.2" height="13.7" xlink:href="#a"/>
<use transform="translate(177.18 21.245)" x="-4.6" y="-6.8" width="9.2" height="13.7" xlink:href="#b"/>
<path class="st1" d="m11.2 20.7h-3"/>
<path class="st1" d="m15.9 24.2v-7.1"/>
<path class="st1" d="M20.6,34.5V6.8"/>
<path class="st1" d="M25.3,28.4V13"/>
<path class="st1" d="M30,39V2.4"/>
<path class="st1" d="m34.7 34.2v-27"/>
<path class="st1" d="M39.4,28.4V13"/>
<path class="st1" d="M202.5,29.9V16"/>
<path class="st1" d="M188.4,29.9V11.5"/>
<path class="st1" d="M193.2,29.9V11.5"/>
<path class="st1" d="M197.8,29.9V13.2"/>
<path class="st1" d="M207.2,29.9V18.5"/>
<path class="st1" d="m211.9 29.9v-8.3"/>
</svg>