<?xml version="1.0" encoding="utf-8" standalone="no"?>
<!DOCTYPE svg PUBLIC "-//W3C//DTD SVG 1.1//EN"
  "http://www.w3.org/Graphics/SVG/1.1/DTD/svg11.dtd">
<svg xmlns:xlink="http://www.w3.org/1999/xlink" width="1036.8pt" height="360pt" viewBox="0 0 1036.8 360" xmlns="http://www.w3.org/2000/svg" version="1.1">
 <metadata>
  <rdf:RDF xmlns:dc="http://purl.org/dc/elements/1.1/" xmlns:cc="http://creativecommons.org/ns#" xmlns:rdf="http://www.w3.org/1999/02/22-rdf-syntax-ns#">
   <cc:Work>
    <dc:type rdf:resource="http://purl.org/dc/dcmitype/StillImage"/>
    <dc:date>2023-03-02T17:27:15.386583</dc:date>
    <dc:format>image/svg+xml</dc:format>
    <dc:creator>
     <cc:Agent>
      <dc:title>Matplotlib v3.5.3, https://matplotlib.org/</dc:title>
     </cc:Agent>
    </dc:creator>
   </cc:Work>
  </rdf:RDF>
 </metadata>
 <defs>
  <style type="text/css">*{stroke-linejoin: round; stroke-linecap: butt}</style>
 </defs>
 <g id="figure_1">
  <g id="patch_1">
   <path d="M 0 360 
L 1036.8 360 
L 1036.8 0 
L 0 0 
z
" style="fill: #ffffff"/>
  </g>
  <g id="axes_1">
   <g id="patch_2">
    <path d="M 53.8896 318.04 
L 531.1644 318.04 
L 531.1644 26.16 
L 53.8896 26.16 
z
" style="fill: #ffffff"/>
   </g>
   <g id="matplotlib.axis_1">
    <g id="xtick_1">
     <g id="line2d_1">
      <path d="M 75.583909 318.04 
L 75.583909 26.16 
" clip-path="url(#p8f73d0c61d)" style="fill: none; stroke: #b0b0b0; stroke-width: 0.8; stroke-linecap: square"/>
     </g>
     <g id="line2d_2">
      <defs>
       <path id="m2f416d1e20" d="M 0 0 
L 0 3.5 
" style="stroke: #000000; stroke-width: 0.8"/>
      </defs>
      <g>
       <use xlink:href="#m2f416d1e20" x="75.583909" y="318.04" style="stroke: #000000; stroke-width: 0.8"/>
      </g>
     </g>
     <g id="text_1">
      <!-- 0 -->
      <g transform="translate(72.402659 332.638438)scale(0.1 -0.1)">
       <defs>
        <path id="DejaVuSans-30" d="M 2034 4250 
Q 1547 4250 1301 3770 
Q 1056 3291 1056 2328 
Q 1056 1369 1301 889 
Q 1547 409 2034 409 
Q 2525 409 2770 889 
Q 3016 1369 3016 2328 
Q 3016 3291 2770 3770 
Q 2525 4250 2034 4250 
z
M 2034 4750 
Q 2819 4750 3233 4129 
Q 3647 3509 3647 2328 
Q 3647 1150 3233 529 
Q 2819 -91 2034 -91 
Q 1250 -91 836 529 
Q 422 1150 422 2328 
Q 422 3509 836 4129 
Q 1250 4750 2034 4750 
z
" transform="scale(0.015625)"/>
       </defs>
       <use xlink:href="#DejaVuSans-30"/>
      </g>
     </g>
    </g>
    <g id="xtick_2">
     <g id="line2d_3">
      <path d="M 172.035211 318.04 
L 172.035211 26.16 
" clip-path="url(#p8f73d0c61d)" style="fill: none; stroke: #b0b0b0; stroke-width: 0.8; stroke-linecap: square"/>
     </g>
     <g id="line2d_4">
      <g>
       <use xlink:href="#m2f416d1e20" x="172.035211" y="318.04" style="stroke: #000000; stroke-width: 0.8"/>
      </g>
     </g>
     <g id="text_2">
      <!-- 20 -->
      <g transform="translate(165.672711 332.638438)scale(0.1 -0.1)">
       <defs>
        <path id="DejaVuSans-32" d="M 1228 531 
L 3431 531 
L 3431 0 
L 469 0 
L 469 531 
Q 828 903 1448 1529 
Q 2069 2156 2228 2338 
Q 2531 2678 2651 2914 
Q 2772 3150 2772 3378 
Q 2772 3750 2511 3984 
Q 2250 4219 1831 4219 
Q 1534 4219 1204 4116 
Q 875 4013 500 3803 
L 500 4441 
Q 881 4594 1212 4672 
Q 1544 4750 1819 4750 
Q 2544 4750 2975 4387 
Q 3406 4025 3406 3419 
Q 3406 3131 3298 2873 
Q 3191 2616 2906 2266 
Q 2828 2175 2409 1742 
Q 1991 1309 1228 531 
z
" transform="scale(0.015625)"/>
       </defs>
       <use xlink:href="#DejaVuSans-32"/>
       <use xlink:href="#DejaVuSans-30" x="63.623047"/>
      </g>
     </g>
    </g>
    <g id="xtick_3">
     <g id="line2d_5">
      <path d="M 268.486513 318.04 
L 268.486513 26.16 
" clip-path="url(#p8f73d0c61d)" style="fill: none; stroke: #b0b0b0; stroke-width: 0.8; stroke-linecap: square"/>
     </g>
     <g id="line2d_6">
      <g>
       <use xlink:href="#m2f416d1e20" x="268.486513" y="318.04" style="stroke: #000000; stroke-width: 0.8"/>
      </g>
     </g>
     <g id="text_3">
      <!-- 40 -->
      <g transform="translate(262.124013 332.638438)scale(0.1 -0.1)">
       <defs>
        <path id="DejaVuSans-34" d="M 2419 4116 
L 825 1625 
L 2419 1625 
L 2419 4116 
z
M 2253 4666 
L 3047 4666 
L 3047 1625 
L 3713 1625 
L 3713 1100 
L 3047 1100 
L 3047 0 
L 2419 0 
L 2419 1100 
L 313 1100 
L 313 1709 
L 2253 4666 
z
" transform="scale(0.015625)"/>
       </defs>
       <use xlink:href="#DejaVuSans-34"/>
       <use xlink:href="#DejaVuSans-30" x="63.623047"/>
      </g>
     </g>
    </g>
    <g id="xtick_4">
     <g id="line2d_7">
      <path d="M 364.937815 318.04 
L 364.937815 26.16 
" clip-path="url(#p8f73d0c61d)" style="fill: none; stroke: #b0b0b0; stroke-width: 0.8; stroke-linecap: square"/>
     </g>
     <g id="line2d_8">
      <g>
       <use xlink:href="#m2f416d1e20" x="364.937815" y="318.04" style="stroke: #000000; stroke-width: 0.8"/>
      </g>
     </g>
     <g id="text_4">
      <!-- 60 -->
      <g transform="translate(358.575315 332.638438)scale(0.1 -0.1)">
       <defs>
        <path id="DejaVuSans-36" d="M 2113 2584 
Q 1688 2584 1439 2293 
Q 1191 2003 1191 1497 
Q 1191 994 1439 701 
Q 1688 409 2113 409 
Q 2538 409 2786 701 
Q 3034 994 3034 1497 
Q 3034 2003 2786 2293 
Q 2538 2584 2113 2584 
z
M 3366 4563 
L 3366 3988 
Q 3128 4100 2886 4159 
Q 2644 4219 2406 4219 
Q 1781 4219 1451 3797 
Q 1122 3375 1075 2522 
Q 1259 2794 1537 2939 
Q 1816 3084 2150 3084 
Q 2853 3084 3261 2657 
Q 3669 2231 3669 1497 
Q 3669 778 3244 343 
Q 2819 -91 2113 -91 
Q 1303 -91 875 529 
Q 447 1150 447 2328 
Q 447 3434 972 4092 
Q 1497 4750 2381 4750 
Q 2619 4750 2861 4703 
Q 3103 4656 3366 4563 
z
" transform="scale(0.015625)"/>
       </defs>
       <use xlink:href="#DejaVuSans-36"/>
       <use xlink:href="#DejaVuSans-30" x="63.623047"/>
      </g>
     </g>
    </g>
    <g id="xtick_5">
     <g id="line2d_9">
      <path d="M 461.389117 318.04 
L 461.389117 26.16 
" clip-path="url(#p8f73d0c61d)" style="fill: none; stroke: #b0b0b0; stroke-width: 0.8; stroke-linecap: square"/>
     </g>
     <g id="line2d_10">
      <g>
       <use xlink:href="#m2f416d1e20" x="461.389117" y="318.04" style="stroke: #000000; stroke-width: 0.8"/>
      </g>
     </g>
     <g id="text_5">
      <!-- 80 -->
      <g transform="translate(455.026617 332.638438)scale(0.1 -0.1)">
       <defs>
        <path id="DejaVuSans-38" d="M 2034 2216 
Q 1584 2216 1326 1975 
Q 1069 1734 1069 1313 
Q 1069 891 1326 650 
Q 1584 409 2034 409 
Q 2484 409 2743 651 
Q 3003 894 3003 1313 
Q 3003 1734 2745 1975 
Q 2488 2216 2034 2216 
z
M 1403 2484 
Q 997 2584 770 2862 
Q 544 3141 544 3541 
Q 544 4100 942 4425 
Q 1341 4750 2034 4750 
Q 2731 4750 3128 4425 
Q 3525 4100 3525 3541 
Q 3525 3141 3298 2862 
Q 3072 2584 2669 2484 
Q 3125 2378 3379 2068 
Q 3634 1759 3634 1313 
Q 3634 634 3220 271 
Q 2806 -91 2034 -91 
Q 1263 -91 848 271 
Q 434 634 434 1313 
Q 434 1759 690 2068 
Q 947 2378 1403 2484 
z
M 1172 3481 
Q 1172 3119 1398 2916 
Q 1625 2713 2034 2713 
Q 2441 2713 2670 2916 
Q 2900 3119 2900 3481 
Q 2900 3844 2670 4047 
Q 2441 4250 2034 4250 
Q 1625 4250 1398 4047 
Q 1172 3844 1172 3481 
z
" transform="scale(0.015625)"/>
       </defs>
       <use xlink:href="#DejaVuSans-38"/>
       <use xlink:href="#DejaVuSans-30" x="63.623047"/>
      </g>
     </g>
    </g>
    <g id="text_6">
     <!-- Time (s) -->
     <g transform="translate(272.198094 346.316563)scale(0.1 -0.1)">
      <defs>
       <path id="DejaVuSans-54" d="M -19 4666 
L 3928 4666 
L 3928 4134 
L 2272 4134 
L 2272 0 
L 1638 0 
L 1638 4134 
L -19 4134 
L -19 4666 
z
" transform="scale(0.015625)"/>
       <path id="DejaVuSans-69" d="M 603 3500 
L 1178 3500 
L 1178 0 
L 603 0 
L 603 3500 
z
M 603 4863 
L 1178 4863 
L 1178 4134 
L 603 4134 
L 603 4863 
z
" transform="scale(0.015625)"/>
       <path id="DejaVuSans-6d" d="M 3328 2828 
Q 3544 3216 3844 3400 
Q 4144 3584 4550 3584 
Q 5097 3584 5394 3201 
Q 5691 2819 5691 2113 
L 5691 0 
L 5113 0 
L 5113 2094 
Q 5113 2597 4934 2840 
Q 4756 3084 4391 3084 
Q 3944 3084 3684 2787 
Q 3425 2491 3425 1978 
L 3425 0 
L 2847 0 
L 2847 2094 
Q 2847 2600 2669 2842 
Q 2491 3084 2119 3084 
Q 1678 3084 1418 2786 
Q 1159 2488 1159 1978 
L 1159 0 
L 581 0 
L 581 3500 
L 1159 3500 
L 1159 2956 
Q 1356 3278 1631 3431 
Q 1906 3584 2284 3584 
Q 2666 3584 2933 3390 
Q 3200 3197 3328 2828 
z
" transform="scale(0.015625)"/>
       <path id="DejaVuSans-65" d="M 3597 1894 
L 3597 1613 
L 953 1613 
Q 991 1019 1311 708 
Q 1631 397 2203 397 
Q 2534 397 2845 478 
Q 3156 559 3463 722 
L 3463 178 
Q 3153 47 2828 -22 
Q 2503 -91 2169 -91 
Q 1331 -91 842 396 
Q 353 884 353 1716 
Q 353 2575 817 3079 
Q 1281 3584 2069 3584 
Q 2775 3584 3186 3129 
Q 3597 2675 3597 1894 
z
M 3022 2063 
Q 3016 2534 2758 2815 
Q 2500 3097 2075 3097 
Q 1594 3097 1305 2825 
Q 1016 2553 972 2059 
L 3022 2063 
z
" transform="scale(0.015625)"/>
       <path id="DejaVuSans-20" transform="scale(0.015625)"/>
       <path id="DejaVuSans-28" d="M 1984 4856 
Q 1566 4138 1362 3434 
Q 1159 2731 1159 2009 
Q 1159 1288 1364 580 
Q 1569 -128 1984 -844 
L 1484 -844 
Q 1016 -109 783 600 
Q 550 1309 550 2009 
Q 550 2706 781 3412 
Q 1013 4119 1484 4856 
L 1984 4856 
z
" transform="scale(0.015625)"/>
       <path id="DejaVuSans-73" d="M 2834 3397 
L 2834 2853 
Q 2591 2978 2328 3040 
Q 2066 3103 1784 3103 
Q 1356 3103 1142 2972 
Q 928 2841 928 2578 
Q 928 2378 1081 2264 
Q 1234 2150 1697 2047 
L 1894 2003 
Q 2506 1872 2764 1633 
Q 3022 1394 3022 966 
Q 3022 478 2636 193 
Q 2250 -91 1575 -91 
Q 1294 -91 989 -36 
Q 684 19 347 128 
L 347 722 
Q 666 556 975 473 
Q 1284 391 1588 391 
Q 1994 391 2212 530 
Q 2431 669 2431 922 
Q 2431 1156 2273 1281 
Q 2116 1406 1581 1522 
L 1381 1569 
Q 847 1681 609 1914 
Q 372 2147 372 2553 
Q 372 3047 722 3315 
Q 1072 3584 1716 3584 
Q 2034 3584 2315 3537 
Q 2597 3491 2834 3397 
z
" transform="scale(0.015625)"/>
       <path id="DejaVuSans-29" d="M 513 4856 
L 1013 4856 
Q 1481 4119 1714 3412 
Q 1947 2706 1947 2009 
Q 1947 1309 1714 600 
Q 1481 -109 1013 -844 
L 513 -844 
Q 928 -128 1133 580 
Q 1338 1288 1338 2009 
Q 1338 2731 1133 3434 
Q 928 4138 513 4856 
z
" transform="scale(0.015625)"/>
      </defs>
      <use xlink:href="#DejaVuSans-54"/>
      <use xlink:href="#DejaVuSans-69" x="57.958984"/>
      <use xlink:href="#DejaVuSans-6d" x="85.742188"/>
      <use xlink:href="#DejaVuSans-65" x="183.154297"/>
      <use xlink:href="#DejaVuSans-20" x="244.677734"/>
      <use xlink:href="#DejaVuSans-28" x="276.464844"/>
      <use xlink:href="#DejaVuSans-73" x="315.478516"/>
      <use xlink:href="#DejaVuSans-29" x="367.578125"/>
     </g>
    </g>
   </g>
   <g id="matplotlib.axis_2">
    <g id="ytick_1">
     <g id="line2d_11">
      <path d="M 53.8896 294.735142 
L 531.1644 294.735142 
" clip-path="url(#p8f73d0c61d)" style="fill: none; stroke: #b0b0b0; stroke-width: 0.8; stroke-linecap: square"/>
     </g>
     <g id="line2d_12">
      <defs>
       <path id="mcff45d6576" d="M 0 0 
L -3.5 0 
" style="stroke: #000000; stroke-width: 0.8"/>
      </defs>
      <g>
       <use xlink:href="#mcff45d6576" x="53.8896" y="294.735142" style="stroke: #000000; stroke-width: 0.8"/>
      </g>
     </g>
     <g id="text_7">
      <!-- −1.5 -->
      <g transform="translate(22.606787 298.53436)scale(0.1 -0.1)">
       <defs>
        <path id="DejaVuSans-2212" d="M 678 2272 
L 4684 2272 
L 4684 1741 
L 678 1741 
L 678 2272 
z
" transform="scale(0.015625)"/>
        <path id="DejaVuSans-31" d="M 794 531 
L 1825 531 
L 1825 4091 
L 703 3866 
L 703 4441 
L 1819 4666 
L 2450 4666 
L 2450 531 
L 3481 531 
L 3481 0 
L 794 0 
L 794 531 
z
" transform="scale(0.015625)"/>
        <path id="DejaVuSans-2e" d="M 684 794 
L 1344 794 
L 1344 0 
L 684 0 
L 684 794 
z
" transform="scale(0.015625)"/>
        <path id="DejaVuSans-35" d="M 691 4666 
L 3169 4666 
L 3169 4134 
L 1269 4134 
L 1269 2991 
Q 1406 3038 1543 3061 
Q 1681 3084 1819 3084 
Q 2600 3084 3056 2656 
Q 3513 2228 3513 1497 
Q 3513 744 3044 326 
Q 2575 -91 1722 -91 
Q 1428 -91 1123 -41 
Q 819 9 494 109 
L 494 744 
Q 775 591 1075 516 
Q 1375 441 1709 441 
Q 2250 441 2565 725 
Q 2881 1009 2881 1497 
Q 2881 1984 2565 2268 
Q 2250 2553 1709 2553 
Q 1456 2553 1204 2497 
Q 953 2441 691 2322 
L 691 4666 
z
" transform="scale(0.015625)"/>
       </defs>
       <use xlink:href="#DejaVuSans-2212"/>
       <use xlink:href="#DejaVuSans-31" x="83.789062"/>
       <use xlink:href="#DejaVuSans-2e" x="147.412109"/>
       <use xlink:href="#DejaVuSans-35" x="179.199219"/>
      </g>
     </g>
    </g>
    <g id="ytick_2">
     <g id="line2d_13">
      <path d="M 53.8896 253.856761 
L 531.1644 253.856761 
" clip-path="url(#p8f73d0c61d)" style="fill: none; stroke: #b0b0b0; stroke-width: 0.8; stroke-linecap: square"/>
     </g>
     <g id="line2d_14">
      <g>
       <use xlink:href="#mcff45d6576" x="53.8896" y="253.856761" style="stroke: #000000; stroke-width: 0.8"/>
      </g>
     </g>
     <g id="text_8">
      <!-- −1.0 -->
      <g transform="translate(22.606787 257.65598)scale(0.1 -0.1)">
       <use xlink:href="#DejaVuSans-2212"/>
       <use xlink:href="#DejaVuSans-31" x="83.789062"/>
       <use xlink:href="#DejaVuSans-2e" x="147.412109"/>
       <use xlink:href="#DejaVuSans-30" x="179.199219"/>
      </g>
     </g>
    </g>
    <g id="ytick_3">
     <g id="line2d_15">
      <path d="M 53.8896 212.978381 
L 531.1644 212.978381 
" clip-path="url(#p8f73d0c61d)" style="fill: none; stroke: #b0b0b0; stroke-width: 0.8; stroke-linecap: square"/>
     </g>
     <g id="line2d_16">
      <g>
       <use xlink:href="#mcff45d6576" x="53.8896" y="212.978381" style="stroke: #000000; stroke-width: 0.8"/>
      </g>
     </g>
     <g id="text_9">
      <!-- −0.5 -->
      <g transform="translate(22.606787 216.777599)scale(0.1 -0.1)">
       <use xlink:href="#DejaVuSans-2212"/>
       <use xlink:href="#DejaVuSans-30" x="83.789062"/>
       <use xlink:href="#DejaVuSans-2e" x="147.412109"/>
       <use xlink:href="#DejaVuSans-35" x="179.199219"/>
      </g>
     </g>
    </g>
    <g id="ytick_4">
     <g id="line2d_17">
      <path d="M 53.8896 172.1 
L 531.1644 172.1 
" clip-path="url(#p8f73d0c61d)" style="fill: none; stroke: #b0b0b0; stroke-width: 0.8; stroke-linecap: square"/>
     </g>
     <g id="line2d_18">
      <g>
       <use xlink:href="#mcff45d6576" x="53.8896" y="172.1" style="stroke: #000000; stroke-width: 0.8"/>
      </g>
     </g>
     <g id="text_10">
      <!-- 0.0 -->
      <g transform="translate(30.986475 175.899219)scale(0.1 -0.1)">
       <use xlink:href="#DejaVuSans-30"/>
       <use xlink:href="#DejaVuSans-2e" x="63.623047"/>
       <use xlink:href="#DejaVuSans-30" x="95.410156"/>
      </g>
     </g>
    </g>
    <g id="ytick_5">
     <g id="line2d_19">
      <path d="M 53.8896 131.221619 
L 531.1644 131.221619 
" clip-path="url(#p8f73d0c61d)" style="fill: none; stroke: #b0b0b0; stroke-width: 0.8; stroke-linecap: square"/>
     </g>
     <g id="line2d_20">
      <g>
       <use xlink:href="#mcff45d6576" x="53.8896" y="131.221619" style="stroke: #000000; stroke-width: 0.8"/>
      </g>
     </g>
     <g id="text_11">
      <!-- 0.5 -->
      <g transform="translate(30.986475 135.020838)scale(0.1 -0.1)">
       <use xlink:href="#DejaVuSans-30"/>
       <use xlink:href="#DejaVuSans-2e" x="63.623047"/>
       <use xlink:href="#DejaVuSans-35" x="95.410156"/>
      </g>
     </g>
    </g>
    <g id="ytick_6">
     <g id="line2d_21">
      <path d="M 53.8896 90.343239 
L 531.1644 90.343239 
" clip-path="url(#p8f73d0c61d)" style="fill: none; stroke: #b0b0b0; stroke-width: 0.8; stroke-linecap: square"/>
     </g>
     <g id="line2d_22">
      <g>
       <use xlink:href="#mcff45d6576" x="53.8896" y="90.343239" style="stroke: #000000; stroke-width: 0.8"/>
      </g>
     </g>
     <g id="text_12">
      <!-- 1.0 -->
      <g transform="translate(30.986475 94.142458)scale(0.1 -0.1)">
       <use xlink:href="#DejaVuSans-31"/>
       <use xlink:href="#DejaVuSans-2e" x="63.623047"/>
       <use xlink:href="#DejaVuSans-30" x="95.410156"/>
      </g>
     </g>
    </g>
    <g id="ytick_7">
     <g id="line2d_23">
      <path d="M 53.8896 49.464858 
L 531.1644 49.464858 
" clip-path="url(#p8f73d0c61d)" style="fill: none; stroke: #b0b0b0; stroke-width: 0.8; stroke-linecap: square"/>
     </g>
     <g id="line2d_24">
      <g>
       <use xlink:href="#mcff45d6576" x="53.8896" y="49.464858" style="stroke: #000000; stroke-width: 0.8"/>
      </g>
     </g>
     <g id="text_13">
      <!-- 1.5 -->
      <g transform="translate(30.986475 53.264077)scale(0.1 -0.1)">
       <use xlink:href="#DejaVuSans-31"/>
       <use xlink:href="#DejaVuSans-2e" x="63.623047"/>
       <use xlink:href="#DejaVuSans-35" x="95.410156"/>
      </g>
     </g>
    </g>
    <g id="text_14">
     <!-- Amplitude -->
     <g transform="translate(16.5271 197.722656)rotate(-90)scale(0.1 -0.1)">
      <defs>
       <path id="DejaVuSans-41" d="M 2188 4044 
L 1331 1722 
L 3047 1722 
L 2188 4044 
z
M 1831 4666 
L 2547 4666 
L 4325 0 
L 3669 0 
L 3244 1197 
L 1141 1197 
L 716 0 
L 50 0 
L 1831 4666 
z
" transform="scale(0.015625)"/>
       <path id="DejaVuSans-70" d="M 1159 525 
L 1159 -1331 
L 581 -1331 
L 581 3500 
L 1159 3500 
L 1159 2969 
Q 1341 3281 1617 3432 
Q 1894 3584 2278 3584 
Q 2916 3584 3314 3078 
Q 3713 2572 3713 1747 
Q 3713 922 3314 415 
Q 2916 -91 2278 -91 
Q 1894 -91 1617 61 
Q 1341 213 1159 525 
z
M 3116 1747 
Q 3116 2381 2855 2742 
Q 2594 3103 2138 3103 
Q 1681 3103 1420 2742 
Q 1159 2381 1159 1747 
Q 1159 1113 1420 752 
Q 1681 391 2138 391 
Q 2594 391 2855 752 
Q 3116 1113 3116 1747 
z
" transform="scale(0.015625)"/>
       <path id="DejaVuSans-6c" d="M 603 4863 
L 1178 4863 
L 1178 0 
L 603 0 
L 603 4863 
z
" transform="scale(0.015625)"/>
       <path id="DejaVuSans-74" d="M 1172 4494 
L 1172 3500 
L 2356 3500 
L 2356 3053 
L 1172 3053 
L 1172 1153 
Q 1172 725 1289 603 
Q 1406 481 1766 481 
L 2356 481 
L 2356 0 
L 1766 0 
Q 1100 0 847 248 
Q 594 497 594 1153 
L 594 3053 
L 172 3053 
L 172 3500 
L 594 3500 
L 594 4494 
L 1172 4494 
z
" transform="scale(0.015625)"/>
       <path id="DejaVuSans-75" d="M 544 1381 
L 544 3500 
L 1119 3500 
L 1119 1403 
Q 1119 906 1312 657 
Q 1506 409 1894 409 
Q 2359 409 2629 706 
Q 2900 1003 2900 1516 
L 2900 3500 
L 3475 3500 
L 3475 0 
L 2900 0 
L 2900 538 
Q 2691 219 2414 64 
Q 2138 -91 1772 -91 
Q 1169 -91 856 284 
Q 544 659 544 1381 
z
M 1991 3584 
L 1991 3584 
z
" transform="scale(0.015625)"/>
       <path id="DejaVuSans-64" d="M 2906 2969 
L 2906 4863 
L 3481 4863 
L 3481 0 
L 2906 0 
L 2906 525 
Q 2725 213 2448 61 
Q 2172 -91 1784 -91 
Q 1150 -91 751 415 
Q 353 922 353 1747 
Q 353 2572 751 3078 
Q 1150 3584 1784 3584 
Q 2172 3584 2448 3432 
Q 2725 3281 2906 2969 
z
M 947 1747 
Q 947 1113 1208 752 
Q 1469 391 1925 391 
Q 2381 391 2643 752 
Q 2906 1113 2906 1747 
Q 2906 2381 2643 2742 
Q 2381 3103 1925 3103 
Q 1469 3103 1208 2742 
Q 947 2381 947 1747 
z
" transform="scale(0.015625)"/>
      </defs>
      <use xlink:href="#DejaVuSans-41"/>
      <use xlink:href="#DejaVuSans-6d" x="68.408203"/>
      <use xlink:href="#DejaVuSans-70" x="165.820312"/>
      <use xlink:href="#DejaVuSans-6c" x="229.296875"/>
      <use xlink:href="#DejaVuSans-69" x="257.080078"/>
      <use xlink:href="#DejaVuSans-74" x="284.863281"/>
      <use xlink:href="#DejaVuSans-75" x="324.072266"/>
      <use xlink:href="#DejaVuSans-64" x="387.451172"/>
      <use xlink:href="#DejaVuSans-65" x="450.927734"/>
     </g>
    </g>
    <g id="text_15">
     <!-- 1e7 -->
     <g transform="translate(53.8896 23.16)scale(0.1 -0.1)">
      <defs>
       <path id="DejaVuSans-37" d="M 525 4666 
L 3525 4666 
L 3525 4397 
L 1831 0 
L 1172 0 
L 2766 4134 
L 525 4134 
L 525 4666 
z
" transform="scale(0.015625)"/>
      </defs>
      <use xlink:href="#DejaVuSans-31"/>
      <use xlink:href="#DejaVuSans-65" x="63.623047"/>
      <use xlink:href="#DejaVuSans-37" x="125.146484"/>
     </g>
    </g>
   </g>
   <g id="patch_3">
    <path d="M 53.8896 318.04 
L 53.8896 26.16 
" style="fill: none; stroke: #000000; stroke-width: 0.8; stroke-linejoin: miter; stroke-linecap: square"/>
   </g>
   <g id="patch_4">
    <path d="M 531.1644 318.04 
L 531.1644 26.16 
" style="fill: none; stroke: #000000; stroke-width: 0.8; stroke-linejoin: miter; stroke-linecap: square"/>
   </g>
   <g id="patch_5">
    <path d="M 53.8896 318.04 
L 531.1644 318.04 
" style="fill: none; stroke: #000000; stroke-width: 0.8; stroke-linejoin: miter; stroke-linecap: square"/>
   </g>
   <g id="patch_6">
    <path d="M 53.8896 26.16 
L 531.1644 26.16 
" style="fill: none; stroke: #000000; stroke-width: 0.8; stroke-linejoin: miter; stroke-linecap: square"/>
   </g>
   <g id="text_16">
    <!-- WI.DSD.00.HHZ -->
    <g transform="translate(245.285438 20.16)scale(0.12 -0.12)">
     <defs>
      <path id="DejaVuSans-57" d="M 213 4666 
L 850 4666 
L 1831 722 
L 2809 4666 
L 3519 4666 
L 4500 722 
L 5478 4666 
L 6119 4666 
L 4947 0 
L 4153 0 
L 3169 4050 
L 2175 0 
L 1381 0 
L 213 4666 
z
" transform="scale(0.015625)"/>
      <path id="DejaVuSans-49" d="M 628 4666 
L 1259 4666 
L 1259 0 
L 628 0 
L 628 4666 
z
" transform="scale(0.015625)"/>
      <path id="DejaVuSans-44" d="M 1259 4147 
L 1259 519 
L 2022 519 
Q 2988 519 3436 956 
Q 3884 1394 3884 2338 
Q 3884 3275 3436 3711 
Q 2988 4147 2022 4147 
L 1259 4147 
z
M 628 4666 
L 1925 4666 
Q 3281 4666 3915 4102 
Q 4550 3538 4550 2338 
Q 4550 1131 3912 565 
Q 3275 0 1925 0 
L 628 0 
L 628 4666 
z
" transform="scale(0.015625)"/>
      <path id="DejaVuSans-53" d="M 3425 4513 
L 3425 3897 
Q 3066 4069 2747 4153 
Q 2428 4238 2131 4238 
Q 1616 4238 1336 4038 
Q 1056 3838 1056 3469 
Q 1056 3159 1242 3001 
Q 1428 2844 1947 2747 
L 2328 2669 
Q 3034 2534 3370 2195 
Q 3706 1856 3706 1288 
Q 3706 609 3251 259 
Q 2797 -91 1919 -91 
Q 1588 -91 1214 -16 
Q 841 59 441 206 
L 441 856 
Q 825 641 1194 531 
Q 1563 422 1919 422 
Q 2459 422 2753 634 
Q 3047 847 3047 1241 
Q 3047 1584 2836 1778 
Q 2625 1972 2144 2069 
L 1759 2144 
Q 1053 2284 737 2584 
Q 422 2884 422 3419 
Q 422 4038 858 4394 
Q 1294 4750 2059 4750 
Q 2388 4750 2728 4690 
Q 3069 4631 3425 4513 
z
" transform="scale(0.015625)"/>
      <path id="DejaVuSans-48" d="M 628 4666 
L 1259 4666 
L 1259 2753 
L 3553 2753 
L 3553 4666 
L 4184 4666 
L 4184 0 
L 3553 0 
L 3553 2222 
L 1259 2222 
L 1259 0 
L 628 0 
L 628 4666 
z
" transform="scale(0.015625)"/>
      <path id="DejaVuSans-5a" d="M 359 4666 
L 4025 4666 
L 4025 4184 
L 1075 531 
L 4097 531 
L 4097 0 
L 288 0 
L 288 481 
L 3238 4134 
L 359 4134 
L 359 4666 
z
" transform="scale(0.015625)"/>
     </defs>
     <use xlink:href="#DejaVuSans-57"/>
     <use xlink:href="#DejaVuSans-49" x="98.876953"/>
     <use xlink:href="#DejaVuSans-2e" x="128.369141"/>
     <use xlink:href="#DejaVuSans-44" x="160.15625"/>
     <use xlink:href="#DejaVuSans-53" x="237.158203"/>
     <use xlink:href="#DejaVuSans-44" x="300.634766"/>
     <use xlink:href="#DejaVuSans-2e" x="377.636719"/>
     <use xlink:href="#DejaVuSans-30" x="409.423828"/>
     <use xlink:href="#DejaVuSans-30" x="473.046875"/>
     <use xlink:href="#DejaVuSans-2e" x="536.669922"/>
     <use xlink:href="#DejaVuSans-48" x="568.457031"/>
     <use xlink:href="#DejaVuSans-48" x="643.652344"/>
     <use xlink:href="#DejaVuSans-5a" x="718.847656"/>
    </g>
   </g>
   <g id="line2d_25">
    <path d="M 75.583909 167.900029 
L 98.298191 167.896799 
L 108.329126 167.902138 
L 138.132578 167.898148 
L 143.678528 167.899048 
L 175.314555 167.900961 
L 186.599358 167.899195 
L 221.032472 167.904787 
L 232.799531 167.897805 
L 259.564768 167.899849 
L 267.956031 167.822155 
L 268.148933 167.487623 
L 268.63119 166.39671 
L 268.727641 166.326268 
L 268.824093 166.574784 
L 269.016995 167.353975 
L 269.113446 166.782806 
L 269.258123 165.739181 
L 269.306349 165.815656 
L 269.692154 167.498505 
L 269.788606 166.950465 
L 269.933283 166.044355 
L 269.981508 166.287998 
L 270.126185 168.032287 
L 270.415539 166.447203 
L 270.51199 166.289878 
L 270.608442 165.757756 
L 270.753119 169.396791 
L 270.801344 168.791063 
L 270.897796 167.07368 
L 270.946021 167.252924 
L 270.994247 167.327519 
L 271.042472 167.763274 
L 271.138924 170.712715 
L 271.187149 170.08152 
L 271.331826 165.266357 
L 271.380052 165.62038 
L 271.428278 165.540774 
L 271.717632 169.015861 
L 271.765857 169.677911 
L 271.814083 169.417254 
L 272.006986 164.654866 
L 272.055211 164.982089 
L 272.199888 167.164357 
L 272.344565 161.921672 
L 272.392791 162.308774 
L 272.633919 172.075077 
L 272.682145 170.632593 
L 272.778596 168.617665 
L 272.826822 169.615016 
L 272.875047 169.600643 
L 273.116175 163.148726 
L 273.260852 169.030586 
L 273.309078 167.65121 
L 273.501981 165.119285 
L 273.646658 171.235974 
L 273.694883 168.976258 
L 273.887786 164.181854 
L 273.936012 163.71127 
L 274.032463 166.570639 
L 274.080689 166.265654 
L 274.128914 165.171037 
L 274.17714 165.960971 
L 274.321817 169.69499 
L 274.418268 168.510384 
L 274.707622 173.434111 
L 275.093427 162.476187 
L 275.382781 173.71578 
L 275.431007 173.501511 
L 275.527458 170.639608 
L 275.575684 171.28677 
L 275.623909 171.916935 
L 275.672135 171.205021 
L 275.816812 164.543995 
L 275.865038 165.105942 
L 276.106166 168.690747 
L 276.202617 167.097243 
L 276.299068 171.036333 
L 276.347294 170.77615 
L 276.540197 167.792453 
L 276.684874 173.511093 
L 276.733099 172.792836 
L 276.877776 167.27813 
L 276.926002 167.669516 
L 277.022453 166.994981 
L 277.070679 167.472891 
L 277.16713 163.984796 
L 277.263581 160.711484 
L 277.408258 170.702217 
L 277.456484 169.8315 
L 277.552935 168.113864 
L 277.649387 163.120103 
L 277.697612 164.057199 
L 277.794064 167.365209 
L 277.842289 166.466743 
L 277.938741 160.772352 
L 277.986966 162.429128 
L 278.131643 169.049423 
L 278.179869 168.87161 
L 278.324546 166.009739 
L 278.372771 166.268605 
L 278.565674 177.485101 
L 278.6139 175.266084 
L 278.806802 163.165078 
L 278.855028 162.972197 
L 278.951479 165.021316 
L 279.289059 174.15904 
L 279.337284 173.467958 
L 279.481961 167.399947 
L 279.530187 168.13575 
L 279.578413 168.099744 
L 279.626638 167.588903 
L 279.674864 168.255139 
L 279.964218 172.9926 
L 280.012444 173.051138 
L 280.253572 168.262718 
L 280.398249 171.916951 
L 280.446474 173.449114 
L 280.4947 172.308083 
L 280.784054 164.691714 
L 280.83228 166.448748 
L 281.025182 173.173389 
L 281.073408 172.638029 
L 281.218085 167.694599 
L 281.362762 169.238518 
L 281.459213 167.710459 
L 281.555664 166.100652 
L 281.700341 169.230816 
L 281.796793 166.875428 
L 281.893244 164.446852 
L 281.94147 165.063862 
L 282.037921 169.219779 
L 282.086147 167.864121 
L 282.134372 166.218276 
L 282.182598 167.020367 
L 282.3755 170.188327 
L 282.423726 169.834541 
L 282.568403 165.180676 
L 282.616629 166.207337 
L 282.664854 167.359895 
L 282.71308 166.888534 
L 282.761306 166.179172 
L 282.809531 166.579976 
L 282.954208 168.017497 
L 283.147111 165.613055 
L 283.195337 165.950604 
L 283.291788 167.313498 
L 283.436465 165.617805 
L 283.532916 166.017203 
L 283.82227 171.220334 
L 284.063398 167.784073 
L 284.208075 164.946304 
L 284.449203 166.586059 
L 284.690332 173.141618 
L 284.738557 172.884877 
L 285.027911 164.844116 
L 285.076137 164.974518 
L 285.317265 173.127621 
L 285.365491 172.398498 
L 285.70307 163.007181 
L 286.04065 172.387755 
L 286.330004 164.248943 
L 286.619358 170.801903 
L 286.667583 170.145535 
L 287.005163 162.697928 
L 287.14984 169.104494 
L 287.198066 169.0696 
L 287.294517 168.879074 
L 287.390968 168.367686 
L 287.439194 168.668305 
L 287.487419 169.08878 
L 287.535645 168.478196 
L 287.632096 165.055253 
L 287.680322 165.7209 
L 287.824999 168.290965 
L 287.873225 168.024193 
L 288.017902 167.541558 
L 288.114353 167.878314 
L 288.210804 166.496192 
L 288.25903 166.74815 
L 288.403707 168.443441 
L 288.500158 169.148512 
L 288.596609 167.671257 
L 288.789512 164.40886 
L 288.837738 164.900741 
L 289.03064 169.299565 
L 289.078866 169.614362 
L 289.127092 169.28825 
L 289.175317 169.026514 
L 289.223543 169.131506 
L 289.271769 169.146958 
L 289.319994 168.949434 
L 289.512897 166.725454 
L 289.561122 166.868643 
L 289.657574 166.267534 
L 289.705799 166.336267 
L 290.188056 169.662181 
L 290.236282 169.510776 
L 290.380959 166.884528 
L 290.47741 164.151669 
L 290.525635 164.6583 
L 290.814989 170.241142 
L 290.959666 167.043872 
L 291.007892 167.602777 
L 291.104343 168.005822 
L 291.152569 167.507335 
L 291.200795 167.857515 
L 291.24902 168.549889 
L 291.297246 167.660841 
L 291.345472 166.803474 
L 291.393697 167.50731 
L 291.538374 169.753021 
L 291.779502 163.743654 
L 291.827728 164.46752 
L 291.972405 169.930916 
L 292.020631 169.353165 
L 292.165308 168.149648 
L 292.309985 167.734103 
L 292.35821 167.583082 
L 292.454662 166.549031 
L 292.599338 170.540797 
L 292.647564 169.782012 
L 292.840467 165.467119 
L 292.888692 165.630126 
L 293.033369 168.26298 
L 293.129821 170.064089 
L 293.178046 169.474231 
L 293.274498 167.9266 
L 293.370949 169.671305 
L 293.419175 169.458542 
L 293.612077 167.596482 
L 293.660303 167.480486 
L 293.853205 169.582673 
L 293.901431 171.06574 
L 293.949657 171.012787 
L 294.190785 165.910249 
L 294.239011 166.248673 
L 294.57659 170.509696 
L 294.624816 170.490181 
L 294.865944 164.773078 
L 294.962395 165.839333 
L 295.155298 171.125742 
L 295.203524 170.660963 
L 295.348201 167.222192 
L 295.444652 167.760266 
L 295.492878 167.512902 
L 295.589329 165.465173 
L 295.637554 165.984828 
L 295.878683 169.361112 
L 295.926908 169.910387 
L 295.975134 169.349617 
L 296.02336 168.708971 
L 296.071585 168.787842 
L 296.119811 169.099425 
L 296.168037 168.88447 
L 296.264488 167.9374 
L 296.312714 168.478531 
L 296.360939 168.333994 
L 296.553842 167.864293 
L 296.650293 168.675255 
L 296.698519 168.372959 
L 296.79497 167.636895 
L 296.843196 167.793892 
L 296.939647 168.291145 
L 297.036098 169.027185 
L 297.13255 167.628318 
L 297.180775 168.214016 
L 297.325452 169.832309 
L 297.373678 169.658036 
L 297.470129 167.345432 
L 297.566581 164.54308 
L 297.614806 165.678354 
L 297.807709 170.074227 
L 298.193514 165.660507 
L 298.24174 165.768377 
L 298.434642 168.774131 
L 298.531094 167.731618 
L 298.627545 169.2792 
L 298.820447 166.597357 
L 299.109801 169.533578 
L 299.158027 169.410616 
L 299.447381 167.413568 
L 299.495607 167.470193 
L 299.592058 168.070958 
L 299.640284 167.363206 
L 299.688509 167.39057 
L 299.736735 168.121451 
L 299.78496 168.06705 
L 299.833186 167.639527 
L 299.881412 167.947963 
L 300.026089 169.874111 
L 300.074314 169.437023 
L 300.267217 165.90953 
L 300.363668 166.888567 
L 300.508345 168.032213 
L 300.556571 167.999788 
L 300.797699 166.445813 
L 300.845925 166.626618 
L 300.942376 168.639249 
L 300.990602 169.934374 
L 301.038827 169.391746 
L 301.183504 168.07852 
L 301.23173 167.994417 
L 301.328181 166.585601 
L 301.424633 165.465803 
L 301.713987 169.854326 
L 301.810438 168.562708 
L 302.051566 165.913495 
L 302.099792 165.999045 
L 302.292694 167.796705 
L 302.389146 169.68733 
L 302.437371 169.067131 
L 302.582048 167.270093 
L 302.630274 167.354507 
L 302.6785 167.317773 
L 302.871402 168.187821 
L 302.967853 169.157464 
L 303.016079 168.880955 
L 303.257207 165.860386 
L 303.353659 167.916609 
L 303.546561 169.761123 
L 303.835915 166.821763 
L 303.932366 164.7771 
L 303.980592 165.715218 
L 304.173495 169.806049 
L 304.22172 169.560762 
L 304.318172 168.571906 
L 304.511074 166.504694 
L 304.5593 166.549423 
L 304.607526 166.779503 
L 304.752203 169.411989 
L 304.800428 168.777132 
L 305.041556 165.596646 
L 305.089782 166.433877 
L 305.186233 168.109146 
L 305.234459 167.913224 
L 305.282685 167.785087 
L 305.379136 169.526866 
L 305.427362 169.377316 
L 305.66849 167.159263 
L 305.861392 165.647221 
L 305.909618 166.060796 
L 306.054295 170.138562 
L 306.343649 165.835213 
L 306.391875 166.471272 
L 306.681229 170.540952 
L 306.729454 170.552676 
L 306.874131 168.412889 
L 307.018808 165.279921 
L 307.308162 169.721218 
L 307.404613 167.957258 
L 307.452839 168.199782 
L 307.54929 168.983069 
L 307.742193 165.586288 
L 307.790419 166.280779 
L 307.935095 168.532965 
L 308.176224 166.892001 
L 308.224449 166.927254 
L 308.320901 166.439935 
L 308.417352 168.13055 
L 308.465578 169.230833 
L 308.513803 169.194083 
L 308.706706 167.985285 
L 308.803157 168.598706 
L 308.851383 168.491784 
L 309.044285 166.399089 
L 309.140737 168.244544 
L 309.237188 169.715601 
L 309.526542 166.759219 
L 309.622993 166.594447 
L 309.815896 170.746832 
L 309.864122 170.354375 
L 310.10525 164.562383 
L 310.153475 165.385395 
L 310.394604 170.189104 
L 310.442829 170.025198 
L 310.732183 166.575864 
L 310.925086 168.091601 
L 311.021537 169.709698 
L 311.069763 169.660317 
L 311.117988 169.730456 
L 311.262665 166.483209 
L 311.359117 165.006951 
L 311.407342 165.534601 
L 311.696696 170.43941 
L 311.744922 170.237544 
L 312.034276 166.316547 
L 312.082501 166.116333 
L 312.178953 167.179482 
L 312.371855 169.717719 
L 312.468307 168.378257 
L 312.564758 166.989414 
L 312.612984 167.509796 
L 312.661209 167.401468 
L 312.757661 166.387185 
L 312.805886 166.563952 
L 312.950563 168.690584 
L 312.998789 169.828221 
L 313.047014 169.821435 
L 313.336368 167.301169 
L 313.529271 168.306041 
L 313.577497 168.54159 
L 313.625722 168.496935 
L 313.722174 168.538843 
L 313.770399 168.248697 
L 313.866851 167.499797 
L 313.963302 168.052726 
L 314.011528 167.725167 
L 314.059753 168.134777 
L 314.156204 169.247952 
L 314.20443 169.005511 
L 314.349107 168.200052 
L 314.445558 166.910069 
L 314.493784 167.281988 
L 314.590235 168.430262 
L 314.686687 167.182499 
L 314.734912 167.368119 
L 314.879589 169.121197 
L 315.024266 165.884602 
L 315.072492 166.369117 
L 315.265394 169.18854 
L 315.31362 168.913543 
L 315.410071 167.296795 
L 315.458297 167.44753 
L 315.554748 168.458427 
L 315.602974 168.107773 
L 315.699425 167.798086 
L 315.795877 166.211081 
L 315.844102 166.648038 
L 315.940554 168.925904 
L 315.988779 168.252302 
L 316.037005 167.184943 
L 316.085231 167.230653 
L 316.229907 168.06485 
L 316.374584 166.48616 
L 316.42281 166.724775 
L 316.615713 169.477452 
L 316.663938 169.442828 
L 316.76039 168.518126 
L 316.856841 169.387241 
L 317.001518 167.064736 
L 317.049744 167.539547 
L 317.097969 167.983437 
L 317.146195 167.410715 
L 317.19442 167.08744 
L 317.242646 167.342946 
L 317.290872 167.271344 
L 317.387323 165.70042 
L 317.435549 166.199733 
L 317.580226 169.7779 
L 317.628451 169.362592 
L 317.724903 169.088314 
L 317.86958 167.163507 
L 317.917805 167.421416 
L 318.110708 166.178558 
L 318.158933 166.550944 
L 318.30361 169.700452 
L 318.351836 169.573475 
L 318.400062 169.685376 
L 318.496513 167.675361 
L 318.592964 164.382518 
L 318.64119 164.95336 
L 318.930544 170.678434 
L 319.268123 165.100154 
L 319.316349 165.746458 
L 319.557477 170.536071 
L 319.653929 169.122799 
L 319.895057 165.763986 
L 319.943283 165.605828 
L 320.136185 167.422316 
L 320.232636 169.514291 
L 320.280862 169.392384 
L 320.377313 168.708023 
L 320.473765 166.366615 
L 320.52199 166.632464 
L 320.714893 168.482186 
L 320.763119 168.391101 
L 320.907796 166.374889 
L 321.100698 168.631858 
L 321.148924 168.609113 
L 321.341826 167.149395 
L 321.390052 167.180512 
L 321.534729 168.158078 
L 321.63118 167.802575 
L 321.679406 168.0571 
L 321.727632 168.095337 
L 321.872309 167.183856 
L 322.016986 168.275472 
L 322.113437 170.416363 
L 322.451016 165.23085 
L 322.499242 165.10972 
L 322.836822 169.376531 
L 322.885047 169.106677 
L 322.981499 167.106301 
L 323.029724 167.326546 
L 323.07795 167.813195 
L 323.126176 167.77427 
L 323.222627 167.420059 
L 323.367304 168.855062 
L 323.415529 168.621557 
L 323.656658 165.125768 
L 323.84956 168.667945 
L 323.897786 168.551646 
L 323.994237 168.627966 
L 324.042463 168.539031 
L 324.090689 169.066959 
L 324.138914 169.022148 
L 324.235366 167.422651 
L 324.283591 167.458101 
L 324.331817 167.651341 
L 324.380042 167.142838 
L 324.428268 167.394453 
L 324.524719 170.140401 
L 324.572945 170.068194 
L 324.717622 165.211711 
L 324.765848 166.000075 
L 324.862299 165.74573 
L 325.006976 169.067368 
L 325.055202 168.376474 
L 325.199879 167.375633 
L 325.248104 167.408916 
L 325.344555 168.916527 
L 325.392781 168.575405 
L 325.441007 168.665092 
L 325.537458 167.15287 
L 325.585684 167.666147 
L 325.682135 169.183528 
L 325.826812 167.13185 
L 325.875038 167.461118 
L 325.923263 167.47706 
L 326.019715 168.493763 
L 326.06794 168.066616 
L 326.164392 165.56571 
L 326.212617 165.883286 
L 326.357294 171.441952 
L 326.40552 171.069403 
L 326.694874 165.72937 
L 326.743099 166.055809 
L 326.936002 169.354482 
L 326.984228 168.991253 
L 327.17713 164.72897 
L 327.225356 165.00857 
L 327.51471 169.274376 
L 327.659387 170.318067 
L 327.707612 170.280974 
L 327.755838 169.708979 
L 327.900515 164.593965 
L 327.996966 167.938234 
L 328.045192 167.805125 
L 328.093418 167.859216 
L 328.189869 169.00323 
L 328.238095 168.800432 
L 328.28632 168.123535 
L 328.334546 168.326513 
L 328.382771 169.292796 
L 328.430997 168.796933 
L 328.527448 166.154522 
L 328.575674 166.331811 
L 328.672125 167.025166 
L 328.768577 169.393798 
L 328.816802 168.44591 
L 328.865028 167.481459 
L 328.913254 168.058907 
L 329.009705 171.259896 
L 329.154382 162.992056 
L 329.250833 165.353976 
L 329.39551 170.81666 
L 329.491961 167.883228 
L 329.540187 165.875184 
L 329.588413 166.17779 
L 329.73309 172.053558 
L 329.781315 171.373113 
L 329.974218 167.460987 
L 330.022444 168.247904 
L 330.070669 167.882304 
L 330.118895 167.432445 
L 330.215346 170.05257 
L 330.360023 164.19007 
L 330.408249 165.649584 
L 330.601151 172.030585 
L 330.649377 171.380602 
L 330.794054 166.058384 
L 330.84228 167.345791 
L 330.890505 168.008242 
L 330.938731 167.330585 
L 331.035182 165.396563 
L 331.179859 170.067392 
L 331.228085 170.039391 
L 331.420988 163.988327 
L 331.469213 164.270584 
L 331.662116 169.92095 
L 331.710341 169.393602 
L 331.758567 169.477501 
L 331.855018 172.18477 
L 332.096147 163.16641 
L 332.144372 165.0204 
L 332.289049 169.177315 
L 332.481952 166.753537 
L 332.578403 167.568047 
L 332.72308 162.142481 
L 332.964208 175.439171 
L 333.012434 174.708446 
L 333.398239 160.068418 
L 333.639367 173.854194 
L 333.687593 170.195587 
L 333.83227 163.950376 
L 333.976947 165.65377 
L 334.266301 174.27538 
L 334.362752 171.951281 
L 334.652106 163.358204 
L 334.94146 171.072175 
L 334.989686 170.890315 
L 335.182588 166.174961 
L 335.27904 161.826679 
L 335.327265 162.930362 
L 335.568393 172.837753 
L 335.616619 172.437537 
L 335.809522 166.514047 
L 335.857747 165.519288 
L 335.905973 166.758165 
L 336.002424 172.268431 
L 336.05065 171.670274 
L 336.243553 168.666973 
L 336.291778 168.494409 
L 336.38823 166.648406 
L 336.436455 166.686554 
L 336.725809 170.206199 
L 337.063389 162.584204 
L 337.111614 163.624747 
L 337.304517 169.249375 
L 337.400968 168.134188 
L 337.449194 169.079108 
L 337.49742 168.975171 
L 337.545645 168.265261 
L 337.642096 169.293262 
L 337.786773 163.625834 
L 337.834999 163.646388 
L 338.076127 170.320258 
L 338.172579 170.688408 
L 338.413707 166.660114 
L 338.461933 166.703216 
L 338.510158 166.543439 
L 338.654835 167.627689 
L 338.751286 166.318068 
L 338.799512 166.469645 
L 338.847738 166.686489 
L 339.04064 168.962695 
L 339.137092 167.0649 
L 339.185317 167.70705 
L 339.329994 172.826078 
L 339.37822 172.673667 
L 339.571123 166.366738 
L 339.619348 166.739385 
L 339.812251 170.820298 
L 339.860476 170.085232 
L 340.005153 167.223688 
L 340.198056 170.435396 
L 340.246282 170.067695 
L 340.342733 169.095926 
L 340.439184 167.565022 
L 340.48741 168.058277 
L 340.583861 168.621761 
L 340.632087 169.08273 
L 340.680312 169.064981 
L 340.873215 167.210353 
L 340.921441 168.109947 
L 341.066118 171.342234 
L 341.114343 170.976536 
L 341.162569 170.921006 
L 341.25902 171.89343 
L 341.307246 171.772773 
L 341.403697 172.470861 
L 341.451923 172.259397 
L 341.5966 168.545719 
L 341.644826 169.317503 
L 341.693051 169.078095 
L 341.837728 165.9841 
L 342.175308 170.278946 
L 342.271759 169.769765 
L 342.319985 169.431161 
L 342.512887 164.1237 
L 342.561113 165.882697 
L 342.609339 165.813294 
L 342.657564 163.821495 
L 342.70579 164.444383 
L 342.946918 171.107077 
L 342.995144 172.120746 
L 343.188046 160.378693 
L 343.284498 161.743409 
L 343.4774 167.677969 
L 343.622077 164.347951 
L 343.670303 164.716265 
L 343.766754 163.133863 
L 344.007882 156.504379 
L 344.056108 156.722923 
L 344.441913 170.059307 
L 344.538365 171.341612 
L 344.683042 174.939597 
L 344.972395 164.135849 
L 345.020621 164.516035 
L 345.117072 166.853967 
L 345.213524 164.991687 
L 345.358201 169.830273 
L 345.454652 174.523005 
L 345.502878 174.340802 
L 345.599329 169.2818 
L 345.69578 164.568097 
L 345.744006 165.509714 
L 345.936908 167.443254 
L 345.985134 167.212741 
L 346.03336 167.500116 
L 346.129811 169.79197 
L 346.322714 161.162846 
L 346.370939 162.235193 
L 346.467391 166.038673 
L 346.660293 176.493359 
L 346.756745 174.185824 
L 346.901421 164.874881 
L 346.949647 165.740416 
L 347.046098 168.699724 
L 347.190775 174.017936 
L 347.383678 170.307741 
L 347.576581 159.85993 
L 347.624806 160.322313 
L 347.962386 176.990637 
L 348.010611 175.224274 
L 348.155288 164.031822 
L 348.203514 164.599026 
L 348.492868 176.489304 
L 348.541094 175.961597 
L 348.782222 161.434205 
L 348.830448 162.097841 
L 349.071576 177.421993 
L 349.119801 177.049706 
L 349.36093 159.168268 
L 349.409155 160.351468 
L 349.505607 166.197076 
L 349.698509 180.322045 
L 349.746735 178.412681 
L 349.987863 164.04169 
L 350.036089 164.272375 
L 350.13254 162.192851 
L 350.180766 162.852898 
L 350.325443 171.988349 
L 350.373668 169.960553 
L 350.663022 159.097851 
L 350.711248 161.217828 
L 350.904151 174.894508 
L 350.952376 174.240478 
L 351.097053 168.992389 
L 351.193504 165.146379 
L 351.24173 165.655896 
L 351.289956 165.727686 
L 351.386407 164.691092 
L 351.675761 175.930979 
L 351.723987 174.707211 
L 351.965115 163.577786 
L 352.01334 163.338721 
L 352.158017 167.141318 
L 352.399146 174.207007 
L 352.6885 163.075652 
L 352.736725 164.607529 
L 352.833177 170.647677 
L 352.881402 168.453358 
L 353.074305 162.349129 
L 353.12253 162.158807 
L 353.170756 162.649413 
L 353.218982 162.479858 
L 353.267207 162.213159 
L 353.315433 162.236378 
L 353.411884 166.784098 
L 353.508336 171.071373 
L 353.556561 170.946384 
L 353.604787 171.819104 
L 353.653013 171.290465 
L 353.749464 166.984042 
L 353.845915 159.132728 
L 353.894141 159.372594 
L 354.087043 171.007203 
L 354.23172 170.300056 
L 354.328172 166.415187 
L 354.376397 168.269815 
L 354.424623 168.529826 
L 354.5693 162.461839 
L 354.617526 163.138924 
L 354.810428 170.851276 
L 354.858654 170.267672 
L 354.955105 166.115835 
L 355.148008 177.131103 
L 355.196233 175.852828 
L 355.485587 163.723991 
L 355.774941 170.335138 
L 355.871393 175.032415 
L 355.919618 174.142362 
L 356.160746 163.67999 
L 356.305423 170.212674 
L 356.401875 168.840771 
L 356.498326 169.201621 
L 356.546552 168.424147 
L 356.643003 171.452687 
L 356.691229 169.532867 
L 356.835906 164.75671 
L 357.028808 168.609408 
L 357.221711 167.654955 
L 357.269936 167.288366 
L 357.607516 172.834818 
L 357.703967 169.78359 
L 357.752193 170.046929 
L 357.800419 170.416788 
L 357.993321 165.075701 
L 358.137998 168.569363 
L 358.282675 172.914531 
L 358.572029 166.531339 
L 358.764932 168.886718 
L 358.909609 171.730488 
L 358.957834 171.529056 
L 359.054286 167.518413 
L 359.150737 162.948978 
L 359.198962 163.603 
L 359.391865 170.553739 
L 359.488316 169.491579 
L 359.632993 165.709675 
L 359.77767 158.080151 
L 359.825896 158.693874 
L 360.11525 172.838955 
L 360.163475 171.928699 
L 360.404604 162.895967 
L 360.501055 164.657556 
L 360.549281 164.359863 
L 360.597506 163.813074 
L 360.88686 169.489944 
L 361.127989 157.765943 
L 361.176214 157.82278 
L 361.465568 176.403558 
L 361.513794 176.303618 
L 361.803148 161.34926 
L 361.851373 161.690186 
L 362.044276 171.44927 
L 362.140727 170.663947 
L 362.237178 171.025001 
L 362.33363 168.685392 
L 362.381855 167.341115 
L 362.430081 168.051933 
L 362.671209 174.51366 
L 362.864112 170.79914 
L 363.10524 161.294769 
L 363.153466 160.577256 
L 363.201692 161.010501 
L 363.394594 172.13283 
L 363.539271 179.265935 
L 363.587497 179.159537 
L 363.635722 179.240746 
L 363.683948 178.766156 
L 363.780399 173.482928 
L 363.973302 151.861911 
L 364.021528 154.13237 
L 364.069753 154.365851 
L 364.21443 164.410478 
L 364.503784 187.104626 
L 364.600235 176.5124 
L 364.648461 179.517656 
L 364.889589 168.665926 
L 365.082492 191.178631 
L 365.32362 175.941967 
L 365.420071 187.38515 
L 365.468297 180.394677 
L 365.516523 183.644484 
L 365.564748 179.612764 
L 365.612974 164.72915 
L 365.6612 170.610928 
L 365.709425 171.87308 
L 366.143456 139.480831 
L 366.191682 140.310932 
L 366.288133 151.461818 
L 366.336359 148.518518 
L 366.384584 148.909102 
L 366.43281 150.303497 
L 366.529261 143.464323 
L 366.577487 144.5692 
L 366.673938 166.188402 
L 366.722164 162.580574 
L 366.818615 174.893101 
L 366.866841 160.501377 
L 366.915067 166.452959 
L 367.011518 178.116125 
L 367.059744 176.5431 
L 367.204421 162.858719 
L 367.252646 163.40707 
L 367.300872 160.584287 
L 367.349097 161.68407 
L 367.493774 181.369251 
L 367.638451 138.466409 
L 367.686677 148.322081 
L 367.87958 169.071448 
L 367.927805 173.218314 
L 368.072482 150.658721 
L 368.265385 171.758482 
L 368.361836 139.6998 
L 368.410062 147.508323 
L 368.458287 151.530976 
L 368.506513 150.203344 
L 368.554739 149.412708 
L 369.085221 91.338697 
L 369.133447 92.26263 
L 369.278124 118.967217 
L 369.326349 117.420379 
L 369.374575 103.868804 
L 369.567477 143.609024 
L 369.615703 143.726697 
L 369.663929 151.612872 
L 369.712154 150.76785 
L 369.856831 146.15681 
L 369.905057 147.250045 
L 369.953283 144.90522 
L 370.001508 147.557794 
L 370.09796 143.959523 
L 370.290862 108.938443 
L 370.483765 90.125492 
L 370.773119 129.353613 
L 370.821344 127.828007 
L 370.966021 109.016218 
L 371.014247 107.763606 
L 371.062473 108.44948 
L 371.20715 119.306541 
L 371.400052 106.040059 
L 371.448278 108.447485 
L 371.544729 89.9596 
L 371.592955 92.350012 
L 371.64118 90.745045 
L 371.737632 91.219864 
L 371.882309 92.306002 
L 371.930534 90.903114 
L 371.97876 92.742584 
L 372.026986 89.926537 
L 372.123437 106.26386 
L 372.171663 93.937262 
L 372.268114 94.187904 
L 372.31634 88.208517 
L 372.412791 105.525727 
L 372.509242 90.822354 
L 372.557468 92.867917 
L 372.605693 91.019478 
L 372.653919 92.640878 
L 372.702145 91.660606 
L 372.75037 91.770259 
L 372.798596 91.994992 
L 372.846822 91.151613 
L 372.943273 90.886762 
L 372.991499 92.841934 
L 373.039724 90.953459 
L 373.08795 92.4898 
L 373.136176 105.123067 
L 373.184401 96.213264 
L 373.232627 89.758004 
L 373.329078 90.8122 
L 373.377304 92.55702 
L 373.42553 91.559669 
L 373.473755 92.023476 
L 373.521981 91.79674 
L 373.570206 91.675036 
L 373.618432 91.891864 
L 373.763109 91.381783 
L 373.811335 91.895747 
L 373.907786 91.875962 
L 374.004237 91.828085 
L 374.148914 91.919481 
L 374.341817 91.753359 
L 374.582945 91.909915 
L 374.775848 91.831601 
L 374.96875 91.822836 
L 375.354556 91.401209 
L 375.499233 91.744096 
L 375.692135 91.550349 
L 375.788586 91.523271 
L 375.981489 91.307564 
L 376.07794 91.674342 
L 376.126166 91.551322 
L 376.41552 91.936822 
L 376.560197 91.680694 
L 376.608422 91.838836 
L 376.753099 91.474577 
L 376.801325 91.764135 
L 376.849551 91.634608 
L 376.897776 91.554208 
L 376.946002 91.942651 
L 376.994228 91.168586 
L 377.042453 92.324128 
L 377.090679 90.810859 
L 377.138905 92.62783 
L 377.18713 90.901037 
L 377.235356 92.40035 
L 377.283582 91.15172 
L 377.380033 92.409866 
L 377.428259 90.044234 
L 377.476484 94.103196 
L 377.572935 95.465125 
L 377.621161 87.637242 
L 377.669387 95.663188 
L 377.717612 89.131584 
L 377.814064 94.10152 
L 377.862289 85.308523 
L 377.910515 107.060473 
L 377.958741 66.176125 
L 378.055192 229.731825 
L 378.103418 35.654102 
L 378.199869 56.01201 
L 378.248095 38.558535 
L 378.29632 66.570225 
L 378.344546 26.16 
L 378.489223 291.835904 
L 378.585674 291.642721 
L 378.6339 280.913912 
L 378.730351 283.334288 
L 378.778577 287.131211 
L 378.826802 285.198334 
L 378.923254 286.037625 
L 378.971479 285.405203 
L 379.019705 286.026555 
L 379.067931 285.640401 
L 379.116156 285.734806 
L 379.212608 285.804503 
L 379.260833 285.398883 
L 379.309059 286.630337 
L 379.357285 284.186741 
L 379.40551 288.148568 
L 379.501962 289.805001 
L 379.550187 281.107953 
L 379.598413 290.668327 
L 379.646638 281.094439 
L 379.694864 289.458818 
L 379.74309 282.548712 
L 379.839541 33.17446 
L 379.887767 60.819446 
L 379.935992 42.452798 
L 380.032444 46.67569 
L 380.080669 51.842349 
L 380.128895 49.507147 
L 380.177121 49.635743 
L 380.225346 51.09313 
L 380.321798 51.555146 
L 380.370023 48.621673 
L 380.418249 51.243792 
L 380.5147 50.615385 
L 380.562926 49.7814 
L 380.611152 50.05101 
L 380.659377 50.227858 
L 380.707603 49.745199 
L 380.755828 50.392974 
L 380.804054 49.703429 
L 380.85228 50.33975 
L 380.900505 49.818649 
L 380.996957 49.966285 
L 381.093408 50.067361 
L 381.238085 49.987861 
L 381.382762 50.068301 
L 381.575665 50.040185 
L 382.106147 50.044608 
L 384.324527 50.070607 
L 384.372752 49.930835 
L 384.420978 50.264305 
L 384.469204 49.713861 
L 384.565655 49.546947 
L 384.613881 50.553544 
L 384.662106 49.60286 
L 384.710332 50.325573 
L 384.806783 49.707247 
L 384.855009 50.810064 
L 384.903234 48.820194 
L 384.999686 48.046408 
L 385.047911 52.208759 
L 385.096137 47.971755 
L 385.192588 49.254167 
L 385.240814 49.468681 
L 385.28904 52.641734 
L 385.337265 44.470596 
L 385.385491 60.44563 
L 385.433717 29.065145 
L 385.530168 301.887121 
L 385.626619 287.358511 
L 385.674845 286.542473 
L 385.723071 283.617142 
L 385.771296 288.568013 
L 385.819522 282.768458 
L 385.867747 288.564023 
L 385.915973 283.373654 
L 386.012424 284.548499 
L 386.06065 286.379507 
L 386.108876 285.638643 
L 386.157101 285.486445 
L 386.205327 286.285593 
L 386.253553 285.09689 
L 386.301778 286.437701 
L 386.350004 285.139837 
L 386.39823 286.254746 
L 386.494681 285.962147 
L 386.542907 285.681525 
L 386.591132 285.730873 
L 386.639358 285.850729 
L 386.735809 285.894166 
L 386.784035 285.631686 
L 386.83226 285.857621 
L 386.928712 285.799434 
L 387.073389 285.767729 
L 387.314517 285.749219 
L 387.796774 285.756962 
L 400.238991 285.642053 
L 400.335443 285.571717 
L 400.383668 285.950815 
L 400.431894 285.586998 
L 400.48012 285.859395 
L 400.576571 285.577301 
L 400.624797 286.140556 
L 400.673022 285.151071 
L 400.769474 284.789117 
L 400.817699 286.777785 
L 400.865925 284.828099 
L 400.914151 286.411621 
L 401.010602 285.264181 
L 401.058828 287.08246 
L 401.107053 283.507065 
L 401.155279 288.918357 
L 401.25173 290.142443 
L 401.299956 281.398272 
L 401.348181 289.394974 
L 401.396407 283.808526 
L 401.444633 284.531632 
L 401.492858 293.238924 
L 401.637535 107.108375 
L 401.685761 33.624474 
L 401.782212 46.845294 
L 401.830438 51.557771 
L 401.878664 48.644646 
L 401.975115 304.458469 
L 402.023341 273.08226 
L 402.071566 295.334472 
L 402.168017 290.926164 
L 402.216243 282.356289 
L 402.264469 287.689463 
L 402.312694 284.965581 
L 402.36092 285.728756 
L 402.409146 286.324296 
L 402.457371 284.855831 
L 402.553823 284.42395 
L 402.602048 287.374192 
L 402.6985 288.378836 
L 402.746725 282.40065 
L 402.843177 280.704312 
L 402.891402 291.611351 
L 402.987854 293.238793 
L 403.036079 271.870069 
L 403.132531 36.642067 
L 403.180756 59.584265 
L 403.228982 42.669184 
L 403.325433 46.025912 
L 403.373659 52.620674 
L 403.421884 48.72507 
L 403.518336 50.528453 
L 403.566561 49.046914 
L 403.614787 51.311863 
L 403.663013 48.719413 
L 403.711238 51.264068 
L 403.759464 49.042843 
L 403.855915 49.607038 
L 403.904141 50.219322 
L 403.952367 50.0835 
L 404.000592 49.8553 
L 404.097044 49.740285 
L 404.145269 50.332572 
L 404.193495 49.804088 
L 404.289946 49.932626 
L 404.338172 50.097758 
L 404.386397 50.038476 
L 404.531074 49.995987 
L 404.675751 50.071523 
L 404.868654 50.042638 
L 405.736716 50.045483 
L 406.556552 49.976554 
L 406.604777 50.157596 
L 406.701229 50.238257 
L 406.749454 49.834346 
L 406.79768 50.241846 
L 406.845906 49.901092 
L 406.942357 50.147605 
L 406.990583 49.755868 
L 407.038808 50.542368 
L 407.087034 49.341778 
L 407.183485 49.082143 
L 407.231711 50.98289 
L 407.279936 49.282136 
L 407.328162 50.456711 
L 407.424613 49.219315 
L 407.472839 51.707541 
L 407.521065 47.471249 
L 407.617516 45.777404 
L 407.665742 54.876891 
L 407.713967 45.010771 
L 407.810419 46.409874 
L 407.858644 52.929273 
L 407.955096 302.725618 
L 408.003321 274.974995 
L 408.051547 293.317361 
L 408.147998 289.073547 
L 408.196224 284.008348 
L 408.24445 286.252906 
L 408.292675 286.197958 
L 408.340901 284.686161 
L 408.437352 284.240693 
L 408.485578 287.179873 
L 408.533803 284.561956 
L 408.630255 285.193821 
L 408.67848 286.012681 
L 408.726706 285.757272 
L 408.774932 285.568422 
L 408.823157 286.060198 
L 408.871383 285.406364 
L 408.919609 286.099114 
L 408.967834 285.461983 
L 409.01606 285.982112 
L 409.112511 285.833944 
L 409.208963 285.733179 
L 409.353639 285.813987 
L 409.498316 285.733465 
L 409.691219 285.761516 
L 410.221701 285.757003 
L 422.422791 285.714326 
L 422.567468 285.813783 
L 422.615694 285.717923 
L 422.663919 285.759504 
L 422.712145 285.810439 
L 422.76037 285.628792 
L 422.808596 285.971336 
L 422.905047 286.129233 
L 422.953273 285.349576 
L 423.001499 286.141546 
L 423.049724 285.471328 
L 423.146176 285.938216 
L 423.194401 285.220131 
L 423.242627 286.694213 
L 423.290853 284.422978 
L 423.387304 283.912971 
L 423.43553 287.561383 
L 423.483755 284.283263 
L 423.531981 286.557172 
L 423.628432 284.131858 
L 423.676658 289.066418 
L 423.724883 280.555891 
L 423.773109 292.937674 
L 423.86956 296.587214 
L 424.014237 208.14988 
L 424.062463 48.23762 
L 424.158914 48.905099 
L 424.20714 54.558448 
L 424.255366 38.198838 
L 424.351817 289.677493 
L 424.54472 281.027104 
L 424.592945 290.740502 
L 424.641171 280.953425 
L 424.689396 290.081935 
L 424.737622 282.086606 
L 424.834073 283.558555 
L 424.882299 287.24285 
L 424.930525 284.952696 
L 425.026976 286.335947 
L 425.075202 284.391354 
L 425.123427 288.025606 
L 425.171653 282.442951 
L 425.219879 290.268398 
L 425.31633 293.195503 
L 425.364556 276.293993 
L 425.412781 298.975975 
L 425.461007 253.114414 
L 425.557458 42.222734 
L 425.605684 56.961197 
L 425.65391 43.833523 
L 425.750361 45.721384 
L 425.798586 53.27149 
L 425.895038 51.186938 
L 425.991489 49.687879 
L 426.039715 50.845751 
L 426.08794 49.00297 
L 426.136166 51.148513 
L 426.184392 49.020327 
L 426.232617 50.892818 
L 426.329069 50.423477 
L 426.377294 49.886998 
L 426.42552 50.022902 
L 426.473746 50.193855 
L 426.570197 50.29207 
L 426.618423 49.810326 
L 426.666648 50.241012 
L 426.763099 50.136642 
L 426.811325 50.000664 
L 426.859551 50.051296 
L 427.245356 50.038844 
L 428.016966 50.044649 
L 429.077931 50.12845 
L 429.126156 49.905777 
L 429.222608 49.806181 
L 429.270833 50.304611 
L 429.319059 49.800041 
L 429.367285 50.226353 
L 429.463736 49.933697 
L 429.511962 50.376982 
L 429.560187 49.463874 
L 429.608413 50.871627 
L 429.704864 51.191917 
L 429.75309 48.915237 
L 429.801315 50.980748 
L 429.849541 49.509036 
L 429.945992 50.964969 
L 429.994218 48.106041 
L 430.042444 53.133575 
L 430.090669 45.74314 
L 430.187121 43.409818 
L 430.235346 57.782444 
L 430.283572 40.675439 
L 430.331798 68.79006 
L 430.428249 297.89296 
L 430.476475 276.752877 
L 430.5247 292.921511 
L 430.621152 289.865958 
L 430.669377 283.022174 
L 430.717603 287.268007 
L 430.765829 285.270444 
L 430.814054 285.450725 
L 430.86228 286.610429 
L 430.958731 287.023423 
L 431.006957 284.555971 
L 431.055182 286.773345 
L 431.151634 286.245769 
L 431.199859 285.527258 
L 431.248085 285.76943 
L 431.296311 285.903903 
L 431.344536 285.511814 
L 431.392762 286.042743 
L 431.440988 285.476626 
L 431.489213 285.998676 
L 431.537439 285.571864 
L 431.63389 285.692603 
L 431.826793 285.801879 
L 431.97147 285.729352 
L 432.164372 285.758049 
L 433.370014 285.756855 
L 445.426426 285.662059 
L 445.474652 285.948273 
L 445.522878 285.463136 
L 445.619329 285.310464 
L 445.667555 286.211775 
L 445.71578 285.365886 
L 445.764006 285.996738 
L 445.860457 285.424751 
L 445.908683 286.48019 
L 445.956909 284.61715 
L 446.05336 283.924719 
L 446.101586 287.737119 
L 446.149811 283.84795 
L 446.246262 284.8786 
L 446.342714 287.49695 
L 446.390939 281.579682 
L 446.439165 256.841427 
L 446.535616 40.227731 
L 446.583842 56.002076 
L 446.632068 43.444483 
L 446.728519 302.75864 
L 446.776745 275.08239 
L 446.82497 293.28304 
L 446.921422 288.630704 
L 447.017873 284.669057 
L 447.066099 288.420769 
L 447.16255 290.16213 
L 447.210776 281.436109 
L 447.259001 289.157847 
L 447.307227 284.395099 
L 447.355452 283.188916 
L 447.403678 297.25453 
L 447.500129 29.109988 
L 447.548355 61.074233 
L 447.596581 43.734008 
L 447.693032 48.869821 
L 447.789483 51.326538 
L 447.885935 52.073672 
L 447.93416 48.087613 
L 447.982386 51.738494 
L 448.078837 50.935463 
L 448.127063 49.56741 
L 448.175289 50.162477 
L 448.223514 50.206348 
L 448.27174 49.695564 
L 448.319965 50.491703 
L 448.368191 49.578088 
L 448.416417 50.471305 
L 448.464642 49.697428 
L 448.561094 49.89514 
L 448.609319 50.105975 
L 448.657545 50.052833 
L 448.705771 49.989774 
L 448.850448 50.123193 
L 448.898673 49.98374 
L 448.995125 50.03008 
L 449.429155 50.135326 
L 449.477381 49.899874 
L 449.573832 49.810596 
L 449.622058 50.291146 
L 449.670284 49.824167 
L 449.718509 50.191345 
L 449.814961 49.883948 
L 449.863186 50.426151 
L 449.911412 49.423371 
L 450.007863 49.019648 
L 450.056089 51.149395 
L 450.104315 49.00095 
L 450.15254 50.849839 
L 450.200766 49.681314 
L 450.248992 49.756767 
L 450.297217 51.178877 
L 450.345443 47.908533 
L 450.393668 53.278023 
L 450.49012 55.432869 
L 450.538345 43.766834 
L 450.634797 42.177441 
L 450.683022 64.234917 
L 450.779474 299.275745 
L 450.827699 276.178143 
L 450.875925 293.115316 
L 450.972376 289.708846 
L 451.020602 283.248084 
L 451.068828 287.018787 
L 451.165279 285.244682 
L 451.213505 286.769871 
L 451.26173 284.48472 
L 451.309956 287.080604 
L 451.358181 284.542612 
L 451.406407 286.752636 
L 451.502858 286.190174 
L 451.551084 285.585248 
L 451.59931 285.716427 
L 451.647535 285.947054 
L 451.743987 286.061187 
L 451.792212 285.469276 
L 451.840438 285.997302 
L 451.936889 285.868895 
L 451.985115 285.703893 
L 452.033341 285.763118 
L 452.178018 285.805615 
L 452.322695 285.730088 
L 452.515597 285.758973 
L 453.383659 285.756855 
L 462.932338 285.699299 
L 462.980563 285.873212 
L 463.028789 285.576034 
L 463.12524 285.471925 
L 463.173466 286.054099 
L 463.221692 285.493035 
L 463.269917 285.929918 
L 463.366369 285.561767 
L 463.414594 286.212968 
L 463.46282 285.018412 
L 463.559271 284.5467 
L 463.607497 287.059036 
L 463.655722 284.52658 
L 463.703948 286.706894 
L 463.752174 285.326921 
L 463.800399 285.413215 
L 463.848625 287.120288 
L 463.896851 283.154603 
L 463.945076 289.776247 
L 463.993302 280.179025 
L 464.089753 276.399721 
L 464.137979 298.730198 
L 464.186205 254.503216 
L 464.282656 41.574289 
L 464.330882 57.341628 
L 464.379107 43.617946 
L 464.475559 45.711533 
L 464.523784 53.223826 
L 464.620236 51.094692 
L 464.716687 49.612139 
L 464.764912 50.902964 
L 464.813138 48.965623 
L 464.861364 51.167537 
L 464.909589 49.016313 
L 464.957815 50.885959 
L 465.054266 50.406938 
L 465.102492 49.903586 
L 465.150718 50.0083 
L 465.198943 50.205309 
L 465.295395 50.296533 
L 465.34362 49.808764 
L 465.391846 50.240416 
L 465.488297 50.13396 
L 465.536523 50.00346 
L 465.584749 50.048786 
L 465.825877 50.073002 
L 465.970554 50.039147 
L 466.79039 50.044764 
L 479.329059 50.123863 
L 479.377285 49.913421 
L 479.473736 49.823129 
L 479.521962 50.285496 
L 479.570187 49.815689 
L 479.666639 49.96232 
L 479.714864 49.986218 
L 479.76309 50.284311 
L 479.811316 49.596131 
L 479.859541 50.711784 
L 479.955993 51.070795 
L 480.004218 48.944228 
L 480.052444 51.095976 
L 480.100669 49.221947 
L 480.197121 50.719952 
L 480.245346 47.082127 
L 480.341798 128.059853 
L 480.390023 118.863215 
L 480.438249 124.225248 
L 480.486475 120.486986 
L 480.5347 121.780672 
L 480.582926 120.545262 
L 480.727603 119.418498 
L 480.87228 121.087702 
L 481.016957 120.075577 
L 481.161634 119.561213 
L 481.258085 119.82012 
L 481.402762 120.70535 
L 481.547439 120.698245 
L 481.64389 120.193896 
L 481.740342 119.311552 
L 481.788567 119.324723 
L 481.98147 120.263912 
L 482.077921 120.872526 
L 482.126147 120.7248 
L 482.415501 119.918179 
L 482.463726 119.88107 
L 482.849532 121.912889 
L 482.897757 121.879598 
L 483.138885 121.610225 
L 483.187111 121.716902 
L 483.476465 123.648928 
L 483.621142 123.393177 
L 483.86227 124.242671 
L 484.055173 125.061088 
L 484.103398 125.170029 
L 484.151624 125.031345 
L 484.248075 124.380169 
L 484.296301 124.436974 
L 484.537429 124.871903 
L 484.633881 124.802279 
L 484.682106 124.848619 
L 485.212588 126.501978 
L 485.357265 126.497154 
L 485.453717 126.477017 
L 485.694845 125.901777 
L 485.743071 125.941551 
L 485.791296 125.92946 
L 485.935973 126.478563 
L 486.128876 127.110624 
L 486.321778 127.304845 
L 486.562907 126.406625 
L 486.611132 126.485994 
L 486.707584 126.449147 
L 486.996938 125.699903 
L 487.141615 126.145093 
L 487.286291 126.808271 
L 487.334517 126.760836 
L 487.52742 125.91637 
L 487.575645 126.01922 
L 487.768548 126.2597 
L 488.057902 125.611712 
L 488.202579 126.280826 
L 488.29903 126.057785 
L 488.347256 125.896356 
L 488.395481 125.985929 
L 488.588384 126.533528 
L 488.781287 125.409806 
L 488.877738 124.94891 
L 488.925964 125.012492 
L 489.118866 125.393544 
L 489.40822 126.711095 
L 489.552897 126.490033 
L 489.697574 127.116952 
L 489.7458 127.058169 
L 489.938702 126.321892 
L 490.179831 127.868362 
L 490.276282 127.376301 
L 490.469184 126.192299 
L 490.662087 126.521223 
L 490.85499 126.67482 
L 491.047892 127.86779 
L 491.096118 127.775397 
L 491.337246 126.916501 
L 491.385472 127.067146 
L 491.433697 127.165033 
L 491.481923 127.113886 
L 491.578374 127.002149 
L 491.915954 127.742923 
L 491.96418 127.623329 
L 492.108857 126.994709 
L 492.253534 127.616976 
L 492.349985 127.351569 
L 492.39821 127.290309 
L 492.446436 127.389006 
L 492.928693 129.497006 
L 492.976918 129.196215 
L 493.169821 127.975226 
L 493.218047 128.056722 
L 493.459175 129.978504 
L 493.5074 129.886103 
L 493.700303 128.620606 
L 493.748529 128.679994 
L 493.941431 129.064995 
L 494.086108 128.765128 
L 494.18256 128.593283 
L 494.279011 129.134922 
L 494.375462 129.855877 
L 494.423688 129.744345 
L 494.761267 128.323625 
L 494.809493 128.29057 
L 494.905944 128.814942 
L 495.098847 129.822651 
L 495.532878 130.496539 
L 495.629329 130.896485 
L 495.677555 130.83807 
L 495.822232 130.719188 
L 496.015134 130.013496 
L 496.06336 130.027027 
L 496.352714 131.061732 
L 496.400939 130.93693 
L 496.690293 128.955547 
L 496.738519 129.263141 
L 496.979647 131.186534 
L 497.027873 131.172136 
L 497.317227 130.376897 
L 497.365453 130.42501 
L 497.799483 132.618446 
L 497.847709 132.352631 
L 498.040612 131.683787 
L 498.137063 131.690981 
L 498.233514 132.079252 
L 498.329966 132.483793 
L 498.378191 132.361828 
L 498.763996 131.415019 
L 498.860448 131.648983 
L 499.101576 132.46655 
L 499.149802 132.587281 
L 499.198027 132.558756 
L 499.439156 131.953224 
L 499.487381 131.995599 
L 499.728509 132.447272 
L 500.017863 131.806046 
L 500.066089 131.894335 
L 500.355443 133.064969 
L 500.548345 132.605504 
L 500.644797 132.129075 
L 500.693022 132.159137 
L 501.127053 133.426636 
L 501.175279 133.368883 
L 501.561084 133.677343 
L 501.705761 134.038954 
L 501.995115 132.43388 
L 502.043341 132.50756 
L 502.38092 134.597197 
L 502.429146 134.523183 
L 502.622048 133.44683 
L 502.670274 133.553294 
L 502.863177 134.667966 
L 502.959628 134.470261 
L 503.056079 134.556981 
L 503.200756 134.019675 
L 503.297208 133.691904 
L 503.345433 133.823942 
L 503.586561 134.787895 
L 503.779464 134.627627 
L 503.82769 134.675577 
L 503.924141 134.385684 
L 503.972367 134.415354 
L 504.213495 136.069734 
L 504.309946 136.351722 
L 504.5993 135.088155 
L 504.647526 135.106664 
L 504.792203 136.225833 
L 504.888654 136.691805 
L 504.93688 136.607367 
L 505.129782 136.083715 
L 505.226234 136.19407 
L 505.419136 136.632433 
L 505.612039 136.197479 
L 505.804941 135.905289 
L 505.901393 135.770946 
L 505.997844 135.530058 
L 506.238972 136.677032 
L 506.335424 136.514671 
L 506.431875 136.312168 
L 506.480101 136.360363 
L 506.624778 136.74287 
L 506.769454 136.938187 
L 506.81768 136.923128 
L 506.962357 136.614504 
L 507.010583 136.638483 
L 507.203485 137.016617 
L 507.299937 137.034857 
L 507.444614 136.640928 
L 507.541065 136.048568 
L 507.589291 136.212498 
L 507.782193 136.808472 
L 507.830419 136.787632 
L 507.92687 136.466909 
L 508.119773 135.966149 
L 508.26445 135.949151 
L 508.360901 135.781607 
L 508.409127 135.67888 
L 508.457352 135.709612 
L 508.602029 135.9384 
L 508.69848 135.801777 
L 508.843157 136.049222 
L 508.891383 135.889747 
L 508.987834 135.662275 
L 509.03606 135.720412 
L 509.132511 136.088816 
L 509.180737 136.056277 
L 509.325414 135.988018 
L 509.421865 136.055828 
L 509.470091 136.24937 
L 509.470091 136.24937 
" clip-path="url(#p8f73d0c61d)" style="fill: none; stroke: #1f77b4; stroke-width: 1.5; stroke-linecap: square"/>
   </g>
  </g>
  <g id="axes_2">
   <g id="patch_7">
    <path d="M 549.1572 318.04 
L 1026.432 318.04 
L 1026.432 26.16 
L 549.1572 26.16 
z
" style="fill: #ffffff"/>
   </g>
   <g id="PathCollection_1">
    <defs>
     <path id="m30fd81b599" d="M -5 5 
L 5 -5 
M -5 -5 
L 5 5 
" style="stroke: #ff0000; stroke-width: 1.5"/>
    </defs>
    <g clip-path="url(#p5b193a4223)">
     <use xlink:href="#m30fd81b599" x="894.838196" y="284.977576" style="fill: #ff0000; stroke: #ff0000; stroke-width: 1.5"/>
     <use xlink:href="#m30fd81b599" x="1003.704629" y="168.092219" style="fill: #ff0000; stroke: #ff0000; stroke-width: 1.5"/>
     <use xlink:href="#m30fd81b599" x="752.349925" y="48.423878" style="fill: #ff0000; stroke: #ff0000; stroke-width: 1.5"/>
    </g>
   </g>
   <g id="patch_8">
    <path d="M 549.1572 318.04 
L 549.1572 273.845638 
L 1026.432 273.845638 
L 1026.432 318.04 
z
" clip-path="url(#p5b193a4223)" style="fill: #ffff00; opacity: 0.5; stroke: #ffff00; stroke-linejoin: miter"/>
   </g>
   <g id="patch_9">
    <path d="M 549.1572 56.772832 
L 549.1572 26.16 
L 1026.432 26.16 
L 1026.432 56.772832 
z
" clip-path="url(#p5b193a4223)" style="fill: #ffff00; opacity: 0.5; stroke: #ffff00; stroke-linejoin: miter"/>
   </g>
   <g id="matplotlib.axis_3">
    <g id="xtick_6">
     <g id="line2d_26">
      <g>
       <use xlink:href="#m2f416d1e20" x="549.1572" y="318.04" style="stroke: #000000; stroke-width: 0.8"/>
      </g>
     </g>
     <g id="text_17">
      <!-- 0.0 -->
      <g transform="translate(541.205637 332.638438)scale(0.1 -0.1)">
       <use xlink:href="#DejaVuSans-30"/>
       <use xlink:href="#DejaVuSans-2e" x="63.623047"/>
       <use xlink:href="#DejaVuSans-30" x="95.410156"/>
      </g>
     </g>
    </g>
    <g id="xtick_7">
     <g id="line2d_27">
      <g>
       <use xlink:href="#m2f416d1e20" x="639.793272" y="318.04" style="stroke: #000000; stroke-width: 0.8"/>
      </g>
     </g>
     <g id="text_18">
      <!-- 0.2 -->
      <g transform="translate(631.84171 332.638438)scale(0.1 -0.1)">
       <use xlink:href="#DejaVuSans-30"/>
       <use xlink:href="#DejaVuSans-2e" x="63.623047"/>
       <use xlink:href="#DejaVuSans-32" x="95.410156"/>
      </g>
     </g>
    </g>
    <g id="xtick_8">
     <g id="line2d_28">
      <g>
       <use xlink:href="#m2f416d1e20" x="730.429344" y="318.04" style="stroke: #000000; stroke-width: 0.8"/>
      </g>
     </g>
     <g id="text_19">
      <!-- 0.4 -->
      <g transform="translate(722.477782 332.638438)scale(0.1 -0.1)">
       <use xlink:href="#DejaVuSans-30"/>
       <use xlink:href="#DejaVuSans-2e" x="63.623047"/>
       <use xlink:href="#DejaVuSans-34" x="95.410156"/>
      </g>
     </g>
    </g>
    <g id="xtick_9">
     <g id="line2d_29">
      <g>
       <use xlink:href="#m2f416d1e20" x="821.065416" y="318.04" style="stroke: #000000; stroke-width: 0.8"/>
      </g>
     </g>
     <g id="text_20">
      <!-- 0.6 -->
      <g transform="translate(813.113854 332.638438)scale(0.1 -0.1)">
       <use xlink:href="#DejaVuSans-30"/>
       <use xlink:href="#DejaVuSans-2e" x="63.623047"/>
       <use xlink:href="#DejaVuSans-36" x="95.410156"/>
      </g>
     </g>
    </g>
    <g id="xtick_10">
     <g id="line2d_30">
      <g>
       <use xlink:href="#m2f416d1e20" x="911.701488" y="318.04" style="stroke: #000000; stroke-width: 0.8"/>
      </g>
     </g>
     <g id="text_21">
      <!-- 0.8 -->
      <g transform="translate(903.749926 332.638438)scale(0.1 -0.1)">
       <use xlink:href="#DejaVuSans-30"/>
       <use xlink:href="#DejaVuSans-2e" x="63.623047"/>
       <use xlink:href="#DejaVuSans-38" x="95.410156"/>
      </g>
     </g>
    </g>
    <g id="xtick_11">
     <g id="line2d_31">
      <g>
       <use xlink:href="#m2f416d1e20" x="1002.33756" y="318.04" style="stroke: #000000; stroke-width: 0.8"/>
      </g>
     </g>
     <g id="text_22">
      <!-- 1.0 -->
      <g transform="translate(994.385998 332.638438)scale(0.1 -0.1)">
       <use xlink:href="#DejaVuSans-31"/>
       <use xlink:href="#DejaVuSans-2e" x="63.623047"/>
       <use xlink:href="#DejaVuSans-30" x="95.410156"/>
      </g>
     </g>
    </g>
    <g id="text_23">
     <!-- Density -->
     <g transform="translate(768.786006 346.316563)scale(0.1 -0.1)">
      <defs>
       <path id="DejaVuSans-6e" d="M 3513 2113 
L 3513 0 
L 2938 0 
L 2938 2094 
Q 2938 2591 2744 2837 
Q 2550 3084 2163 3084 
Q 1697 3084 1428 2787 
Q 1159 2491 1159 1978 
L 1159 0 
L 581 0 
L 581 3500 
L 1159 3500 
L 1159 2956 
Q 1366 3272 1645 3428 
Q 1925 3584 2291 3584 
Q 2894 3584 3203 3211 
Q 3513 2838 3513 2113 
z
" transform="scale(0.015625)"/>
       <path id="DejaVuSans-79" d="M 2059 -325 
Q 1816 -950 1584 -1140 
Q 1353 -1331 966 -1331 
L 506 -1331 
L 506 -850 
L 844 -850 
Q 1081 -850 1212 -737 
Q 1344 -625 1503 -206 
L 1606 56 
L 191 3500 
L 800 3500 
L 1894 763 
L 2988 3500 
L 3597 3500 
L 2059 -325 
z
" transform="scale(0.015625)"/>
      </defs>
      <use xlink:href="#DejaVuSans-44"/>
      <use xlink:href="#DejaVuSans-65" x="77.001953"/>
      <use xlink:href="#DejaVuSans-6e" x="138.525391"/>
      <use xlink:href="#DejaVuSans-73" x="201.904297"/>
      <use xlink:href="#DejaVuSans-69" x="254.003906"/>
      <use xlink:href="#DejaVuSans-74" x="281.787109"/>
      <use xlink:href="#DejaVuSans-79" x="320.996094"/>
     </g>
    </g>
   </g>
   <g id="matplotlib.axis_4">
    <g id="ytick_8">
     <g id="line2d_32">
      <path d="M 549.1572 294.735142 
L 1026.432 294.735142 
" clip-path="url(#p5b193a4223)" style="fill: none; stroke: #b0b0b0; stroke-width: 0.8; stroke-linecap: square"/>
     </g>
     <g id="line2d_33">
      <g>
       <use xlink:href="#mcff45d6576" x="549.1572" y="294.735142" style="stroke: #000000; stroke-width: 0.8"/>
      </g>
     </g>
    </g>
    <g id="ytick_9">
     <g id="line2d_34">
      <path d="M 549.1572 253.856761 
L 1026.432 253.856761 
" clip-path="url(#p5b193a4223)" style="fill: none; stroke: #b0b0b0; stroke-width: 0.8; stroke-linecap: square"/>
     </g>
     <g id="line2d_35">
      <g>
       <use xlink:href="#mcff45d6576" x="549.1572" y="253.856761" style="stroke: #000000; stroke-width: 0.8"/>
      </g>
     </g>
    </g>
    <g id="ytick_10">
     <g id="line2d_36">
      <path d="M 549.1572 212.978381 
L 1026.432 212.978381 
" clip-path="url(#p5b193a4223)" style="fill: none; stroke: #b0b0b0; stroke-width: 0.8; stroke-linecap: square"/>
     </g>
     <g id="line2d_37">
      <g>
       <use xlink:href="#mcff45d6576" x="549.1572" y="212.978381" style="stroke: #000000; stroke-width: 0.8"/>
      </g>
     </g>
    </g>
    <g id="ytick_11">
     <g id="line2d_38">
      <path d="M 549.1572 172.1 
L 1026.432 172.1 
" clip-path="url(#p5b193a4223)" style="fill: none; stroke: #b0b0b0; stroke-width: 0.8; stroke-linecap: square"/>
     </g>
     <g id="line2d_39">
      <g>
       <use xlink:href="#mcff45d6576" x="549.1572" y="172.1" style="stroke: #000000; stroke-width: 0.8"/>
      </g>
     </g>
    </g>
    <g id="ytick_12">
     <g id="line2d_40">
      <path d="M 549.1572 131.221619 
L 1026.432 131.221619 
" clip-path="url(#p5b193a4223)" style="fill: none; stroke: #b0b0b0; stroke-width: 0.8; stroke-linecap: square"/>
     </g>
     <g id="line2d_41">
      <g>
       <use xlink:href="#mcff45d6576" x="549.1572" y="131.221619" style="stroke: #000000; stroke-width: 0.8"/>
      </g>
     </g>
    </g>
    <g id="ytick_13">
     <g id="line2d_42">
      <path d="M 549.1572 90.343239 
L 1026.432 90.343239 
" clip-path="url(#p5b193a4223)" style="fill: none; stroke: #b0b0b0; stroke-width: 0.8; stroke-linecap: square"/>
     </g>
     <g id="line2d_43">
      <g>
       <use xlink:href="#mcff45d6576" x="549.1572" y="90.343239" style="stroke: #000000; stroke-width: 0.8"/>
      </g>
     </g>
    </g>
    <g id="ytick_14">
     <g id="line2d_44">
      <path d="M 549.1572 49.464858 
L 1026.432 49.464858 
" clip-path="url(#p5b193a4223)" style="fill: none; stroke: #b0b0b0; stroke-width: 0.8; stroke-linecap: square"/>
     </g>
     <g id="line2d_45">
      <g>
       <use xlink:href="#mcff45d6576" x="549.1572" y="49.464858" style="stroke: #000000; stroke-width: 0.8"/>
      </g>
     </g>
    </g>
   </g>
   <g id="patch_10">
    <path d="M 549.1572 318.04 
L 549.1572 26.16 
" style="fill: none; stroke: #000000; stroke-width: 0.8; stroke-linejoin: miter; stroke-linecap: square"/>
   </g>
   <g id="patch_11">
    <path d="M 1026.432 318.04 
L 1026.432 26.16 
" style="fill: none; stroke: #000000; stroke-width: 0.8; stroke-linejoin: miter; stroke-linecap: square"/>
   </g>
   <g id="patch_12">
    <path d="M 549.1572 318.04 
L 1026.432 318.04 
" style="fill: none; stroke: #000000; stroke-width: 0.8; stroke-linejoin: miter; stroke-linecap: square"/>
   </g>
   <g id="patch_13">
    <path d="M 549.1572 26.16 
L 1026.432 26.16 
" style="fill: none; stroke: #000000; stroke-width: 0.8; stroke-linejoin: miter; stroke-linecap: square"/>
   </g>
   <g id="text_24">
    <!-- Clipped! -->
    <g transform="translate(762.746475 20.16)scale(0.12 -0.12)">
     <defs>
      <path id="DejaVuSans-43" d="M 4122 4306 
L 4122 3641 
Q 3803 3938 3442 4084 
Q 3081 4231 2675 4231 
Q 1875 4231 1450 3742 
Q 1025 3253 1025 2328 
Q 1025 1406 1450 917 
Q 1875 428 2675 428 
Q 3081 428 3442 575 
Q 3803 722 4122 1019 
L 4122 359 
Q 3791 134 3420 21 
Q 3050 -91 2638 -91 
Q 1578 -91 968 557 
Q 359 1206 359 2328 
Q 359 3453 968 4101 
Q 1578 4750 2638 4750 
Q 3056 4750 3426 4639 
Q 3797 4528 4122 4306 
z
" transform="scale(0.015625)"/>
      <path id="DejaVuSans-21" d="M 966 794 
L 1600 794 
L 1600 0 
L 966 0 
L 966 794 
z
M 966 4666 
L 1600 4666 
L 1600 2619 
L 1538 1503 
L 1031 1503 
L 966 2619 
L 966 4666 
z
" transform="scale(0.015625)"/>
     </defs>
     <use xlink:href="#DejaVuSans-43"/>
     <use xlink:href="#DejaVuSans-6c" x="69.824219"/>
     <use xlink:href="#DejaVuSans-69" x="97.607422"/>
     <use xlink:href="#DejaVuSans-70" x="125.390625"/>
     <use xlink:href="#DejaVuSans-70" x="188.867188"/>
     <use xlink:href="#DejaVuSans-65" x="252.34375"/>
     <use xlink:href="#DejaVuSans-64" x="313.867188"/>
     <use xlink:href="#DejaVuSans-21" x="377.34375"/>
    </g>
   </g>
   <g id="legend_1">
    <g id="patch_14">
     <path d="M 867.407 63.51625 
L 1019.432 63.51625 
Q 1021.432 63.51625 1021.432 61.51625 
L 1021.432 33.16 
Q 1021.432 31.16 1019.432 31.16 
L 867.407 31.16 
Q 865.407 31.16 865.407 33.16 
L 865.407 61.51625 
Q 865.407 63.51625 867.407 63.51625 
z
" style="fill: #ffffff; opacity: 0.8; stroke: #cccccc; stroke-linejoin: miter"/>
    </g>
    <g id="line2d_46">
     <path d="M 869.407 39.258437 
L 879.407 39.258437 
L 889.407 39.258437 
" style="fill: none; stroke: #ff7f0e; stroke-width: 1.5; stroke-linecap: square"/>
    </g>
    <g id="text_25">
     <!-- kernel density -->
     <g transform="translate(897.407 42.758437)scale(0.1 -0.1)">
      <defs>
       <path id="DejaVuSans-6b" d="M 581 4863 
L 1159 4863 
L 1159 1991 
L 2875 3500 
L 3609 3500 
L 1753 1863 
L 3688 0 
L 2938 0 
L 1159 1709 
L 1159 0 
L 581 0 
L 581 4863 
z
" transform="scale(0.015625)"/>
       <path id="DejaVuSans-72" d="M 2631 2963 
Q 2534 3019 2420 3045 
Q 2306 3072 2169 3072 
Q 1681 3072 1420 2755 
Q 1159 2438 1159 1844 
L 1159 0 
L 581 0 
L 581 3500 
L 1159 3500 
L 1159 2956 
Q 1341 3275 1631 3429 
Q 1922 3584 2338 3584 
Q 2397 3584 2469 3576 
Q 2541 3569 2628 3553 
L 2631 2963 
z
" transform="scale(0.015625)"/>
      </defs>
      <use xlink:href="#DejaVuSans-6b"/>
      <use xlink:href="#DejaVuSans-65" x="54.285156"/>
      <use xlink:href="#DejaVuSans-72" x="115.808594"/>
      <use xlink:href="#DejaVuSans-6e" x="155.171875"/>
      <use xlink:href="#DejaVuSans-65" x="218.550781"/>
      <use xlink:href="#DejaVuSans-6c" x="280.074219"/>
      <use xlink:href="#DejaVuSans-20" x="307.857422"/>
      <use xlink:href="#DejaVuSans-64" x="339.644531"/>
      <use xlink:href="#DejaVuSans-65" x="403.121094"/>
      <use xlink:href="#DejaVuSans-6e" x="464.644531"/>
      <use xlink:href="#DejaVuSans-73" x="528.023438"/>
      <use xlink:href="#DejaVuSans-69" x="580.123047"/>
      <use xlink:href="#DejaVuSans-74" x="607.90625"/>
      <use xlink:href="#DejaVuSans-79" x="647.115234"/>
     </g>
    </g>
    <g id="line2d_47">
     <path d="M 869.407 53.936562 
L 879.407 53.936562 
L 889.407 53.936562 
" style="fill: none; stroke: #2ca02c; stroke-width: 1.5; stroke-linecap: square"/>
    </g>
    <g id="text_26">
     <!-- weighted kernel density -->
     <g transform="translate(897.407 57.436562)scale(0.1 -0.1)">
      <defs>
       <path id="DejaVuSans-77" d="M 269 3500 
L 844 3500 
L 1563 769 
L 2278 3500 
L 2956 3500 
L 3675 769 
L 4391 3500 
L 4966 3500 
L 4050 0 
L 3372 0 
L 2619 2869 
L 1863 0 
L 1184 0 
L 269 3500 
z
" transform="scale(0.015625)"/>
       <path id="DejaVuSans-67" d="M 2906 1791 
Q 2906 2416 2648 2759 
Q 2391 3103 1925 3103 
Q 1463 3103 1205 2759 
Q 947 2416 947 1791 
Q 947 1169 1205 825 
Q 1463 481 1925 481 
Q 2391 481 2648 825 
Q 2906 1169 2906 1791 
z
M 3481 434 
Q 3481 -459 3084 -895 
Q 2688 -1331 1869 -1331 
Q 1566 -1331 1297 -1286 
Q 1028 -1241 775 -1147 
L 775 -588 
Q 1028 -725 1275 -790 
Q 1522 -856 1778 -856 
Q 2344 -856 2625 -561 
Q 2906 -266 2906 331 
L 2906 616 
Q 2728 306 2450 153 
Q 2172 0 1784 0 
Q 1141 0 747 490 
Q 353 981 353 1791 
Q 353 2603 747 3093 
Q 1141 3584 1784 3584 
Q 2172 3584 2450 3431 
Q 2728 3278 2906 2969 
L 2906 3500 
L 3481 3500 
L 3481 434 
z
" transform="scale(0.015625)"/>
       <path id="DejaVuSans-68" d="M 3513 2113 
L 3513 0 
L 2938 0 
L 2938 2094 
Q 2938 2591 2744 2837 
Q 2550 3084 2163 3084 
Q 1697 3084 1428 2787 
Q 1159 2491 1159 1978 
L 1159 0 
L 581 0 
L 581 4863 
L 1159 4863 
L 1159 2956 
Q 1366 3272 1645 3428 
Q 1925 3584 2291 3584 
Q 2894 3584 3203 3211 
Q 3513 2838 3513 2113 
z
" transform="scale(0.015625)"/>
      </defs>
      <use xlink:href="#DejaVuSans-77"/>
      <use xlink:href="#DejaVuSans-65" x="81.787109"/>
      <use xlink:href="#DejaVuSans-69" x="143.310547"/>
      <use xlink:href="#DejaVuSans-67" x="171.09375"/>
      <use xlink:href="#DejaVuSans-68" x="234.570312"/>
      <use xlink:href="#DejaVuSans-74" x="297.949219"/>
      <use xlink:href="#DejaVuSans-65" x="337.158203"/>
      <use xlink:href="#DejaVuSans-64" x="398.681641"/>
      <use xlink:href="#DejaVuSans-20" x="462.158203"/>
      <use xlink:href="#DejaVuSans-6b" x="493.945312"/>
      <use xlink:href="#DejaVuSans-65" x="548.230469"/>
      <use xlink:href="#DejaVuSans-72" x="609.753906"/>
      <use xlink:href="#DejaVuSans-6e" x="649.117188"/>
      <use xlink:href="#DejaVuSans-65" x="712.496094"/>
      <use xlink:href="#DejaVuSans-6c" x="774.019531"/>
      <use xlink:href="#DejaVuSans-20" x="801.802734"/>
      <use xlink:href="#DejaVuSans-64" x="833.589844"/>
      <use xlink:href="#DejaVuSans-65" x="897.066406"/>
      <use xlink:href="#DejaVuSans-6e" x="958.589844"/>
      <use xlink:href="#DejaVuSans-73" x="1021.96875"/>
      <use xlink:href="#DejaVuSans-69" x="1074.068359"/>
      <use xlink:href="#DejaVuSans-74" x="1101.851562"/>
      <use xlink:href="#DejaVuSans-79" x="1141.060547"/>
     </g>
    </g>
   </g>
   <g id="patch_15">
    <path d="M 549.1572 301.366264 
L 549.773293 301.366264 
L 549.773293 295.319285 
L 549.1572 295.319285 
z
" clip-path="url(#p5b193a4223)" style="fill: #1f77b4"/>
   </g>
   <g id="patch_16">
    <path d="M 549.1572 295.319285 
L 550.301373 295.319285 
L 550.301373 289.272306 
L 549.1572 289.272306 
z
" clip-path="url(#p5b193a4223)" style="fill: #1f77b4"/>
   </g>
   <g id="patch_17">
    <path d="M 549.1572 289.272306 
L 558.574621 289.272306 
L 558.574621 283.225327 
L 549.1572 283.225327 
z
" clip-path="url(#p5b193a4223)" style="fill: #1f77b4"/>
   </g>
   <g id="patch_18">
    <path d="M 549.1572 283.225327 
L 656.797437 283.225327 
L 656.797437 277.178348 
L 549.1572 277.178348 
z
" clip-path="url(#p5b193a4223)" style="fill: #1f77b4"/>
   </g>
   <g id="patch_19">
    <path d="M 549.1572 277.178348 
L 550.125346 277.178348 
L 550.125346 271.131369 
L 549.1572 271.131369 
z
" clip-path="url(#p5b193a4223)" style="fill: #1f77b4"/>
   </g>
   <g id="patch_20">
    <path d="M 549.1572 271.131369 
L 549.333227 271.131369 
L 549.333227 265.08439 
L 549.1572 265.08439 
z
" clip-path="url(#p5b193a4223)" style="fill: #1f77b4"/>
   </g>
   <g id="patch_21">
    <path d="M 549.1572 265.08439 
L 549.1572 265.08439 
L 549.1572 259.03741 
L 549.1572 259.03741 
z
" clip-path="url(#p5b193a4223)" style="fill: #1f77b4"/>
   </g>
   <g id="patch_22">
    <path d="M 549.1572 259.03741 
L 549.509253 259.03741 
L 549.509253 252.990431 
L 549.1572 252.990431 
z
" clip-path="url(#p5b193a4223)" style="fill: #1f77b4"/>
   </g>
   <g id="patch_23">
    <path d="M 549.1572 252.990431 
L 549.509253 252.990431 
L 549.509253 246.943452 
L 549.1572 246.943452 
z
" clip-path="url(#p5b193a4223)" style="fill: #1f77b4"/>
   </g>
   <g id="patch_24">
    <path d="M 549.1572 246.943452 
L 549.1572 246.943452 
L 549.1572 240.896473 
L 549.1572 240.896473 
z
" clip-path="url(#p5b193a4223)" style="fill: #1f77b4"/>
   </g>
   <g id="patch_25">
    <path d="M 549.1572 240.896473 
L 549.1572 240.896473 
L 549.1572 234.849494 
L 549.1572 234.849494 
z
" clip-path="url(#p5b193a4223)" style="fill: #1f77b4"/>
   </g>
   <g id="patch_26">
    <path d="M 549.1572 234.849494 
L 549.42124 234.849494 
L 549.42124 228.802515 
L 549.1572 228.802515 
z
" clip-path="url(#p5b193a4223)" style="fill: #1f77b4"/>
   </g>
   <g id="patch_27">
    <path d="M 549.1572 228.802515 
L 549.245213 228.802515 
L 549.245213 222.755536 
L 549.1572 222.755536 
z
" clip-path="url(#p5b193a4223)" style="fill: #1f77b4"/>
   </g>
   <g id="patch_28">
    <path d="M 549.1572 222.755536 
L 549.1572 222.755536 
L 549.1572 216.708557 
L 549.1572 216.708557 
z
" clip-path="url(#p5b193a4223)" style="fill: #1f77b4"/>
   </g>
   <g id="patch_29">
    <path d="M 549.1572 216.708557 
L 549.1572 216.708557 
L 549.1572 210.661578 
L 549.1572 210.661578 
z
" clip-path="url(#p5b193a4223)" style="fill: #1f77b4"/>
   </g>
   <g id="patch_30">
    <path d="M 549.1572 210.661578 
L 549.245213 210.661578 
L 549.245213 204.614599 
L 549.1572 204.614599 
z
" clip-path="url(#p5b193a4223)" style="fill: #1f77b4"/>
   </g>
   <g id="patch_31">
    <path d="M 549.1572 204.614599 
L 549.245213 204.614599 
L 549.245213 198.56762 
L 549.1572 198.56762 
z
" clip-path="url(#p5b193a4223)" style="fill: #1f77b4"/>
   </g>
   <g id="patch_32">
    <path d="M 549.1572 198.56762 
L 549.1572 198.56762 
L 549.1572 192.520641 
L 549.1572 192.520641 
z
" clip-path="url(#p5b193a4223)" style="fill: #1f77b4"/>
   </g>
   <g id="patch_33">
    <path d="M 549.1572 192.520641 
L 549.509253 192.520641 
L 549.509253 186.473661 
L 549.1572 186.473661 
z
" clip-path="url(#p5b193a4223)" style="fill: #1f77b4"/>
   </g>
   <g id="patch_34">
    <path d="M 549.1572 186.473661 
L 549.949319 186.473661 
L 549.949319 180.426682 
L 549.1572 180.426682 
z
" clip-path="url(#p5b193a4223)" style="fill: #1f77b4"/>
   </g>
   <g id="patch_35">
    <path d="M 549.1572 180.426682 
L 554.085943 180.426682 
L 554.085943 174.379703 
L 549.1572 174.379703 
z
" clip-path="url(#p5b193a4223)" style="fill: #1f77b4"/>
   </g>
   <g id="patch_36">
    <path d="M 549.1572 174.379703 
L 615.959277 174.379703 
L 615.959277 168.332724 
L 549.1572 168.332724 
z
" clip-path="url(#p5b193a4223)" style="fill: #1f77b4"/>
   </g>
   <g id="patch_37">
    <path d="M 549.1572 168.332724 
L 1002.33756 168.332724 
L 1002.33756 162.285745 
L 549.1572 162.285745 
z
" clip-path="url(#p5b193a4223)" style="fill: #1f77b4"/>
   </g>
   <g id="patch_38">
    <path d="M 549.1572 162.285745 
L 555.142103 162.285745 
L 555.142103 156.238766 
L 549.1572 156.238766 
z
" clip-path="url(#p5b193a4223)" style="fill: #1f77b4"/>
   </g>
   <g id="patch_39">
    <path d="M 549.1572 156.238766 
L 550.653426 156.238766 
L 550.653426 150.191787 
L 549.1572 150.191787 
z
" clip-path="url(#p5b193a4223)" style="fill: #1f77b4"/>
   </g>
   <g id="patch_40">
    <path d="M 549.1572 150.191787 
L 551.005479 150.191787 
L 551.005479 144.144808 
L 549.1572 144.144808 
z
" clip-path="url(#p5b193a4223)" style="fill: #1f77b4"/>
   </g>
   <g id="patch_41">
    <path d="M 549.1572 144.144808 
L 549.861306 144.144808 
L 549.861306 138.097829 
L 549.1572 138.097829 
z
" clip-path="url(#p5b193a4223)" style="fill: #1f77b4"/>
   </g>
   <g id="patch_42">
    <path d="M 549.1572 138.097829 
L 571.336546 138.097829 
L 571.336546 132.05085 
L 549.1572 132.05085 
z
" clip-path="url(#p5b193a4223)" style="fill: #1f77b4"/>
   </g>
   <g id="patch_43">
    <path d="M 549.1572 132.05085 
L 572.744758 132.05085 
L 572.744758 126.003871 
L 549.1572 126.003871 
z
" clip-path="url(#p5b193a4223)" style="fill: #1f77b4"/>
   </g>
   <g id="patch_44">
    <path d="M 549.1572 126.003871 
L 557.870514 126.003871 
L 557.870514 119.956891 
L 549.1572 119.956891 
z
" clip-path="url(#p5b193a4223)" style="fill: #1f77b4"/>
   </g>
   <g id="patch_45">
    <path d="M 549.1572 119.956891 
L 549.509253 119.956891 
L 549.509253 113.909912 
L 549.1572 113.909912 
z
" clip-path="url(#p5b193a4223)" style="fill: #1f77b4"/>
   </g>
   <g id="patch_46">
    <path d="M 549.1572 113.909912 
L 550.829452 113.909912 
L 550.829452 107.862933 
L 549.1572 107.862933 
z
" clip-path="url(#p5b193a4223)" style="fill: #1f77b4"/>
   </g>
   <g id="patch_47">
    <path d="M 549.1572 107.862933 
L 549.861306 107.862933 
L 549.861306 101.815954 
L 549.1572 101.815954 
z
" clip-path="url(#p5b193a4223)" style="fill: #1f77b4"/>
   </g>
   <g id="patch_48">
    <path d="M 549.1572 101.815954 
L 550.125346 101.815954 
L 550.125346 95.768975 
L 549.1572 95.768975 
z
" clip-path="url(#p5b193a4223)" style="fill: #1f77b4"/>
   </g>
   <g id="patch_49">
    <path d="M 549.1572 95.768975 
L 560.510913 95.768975 
L 560.510913 89.721996 
L 549.1572 89.721996 
z
" clip-path="url(#p5b193a4223)" style="fill: #1f77b4"/>
   </g>
   <g id="patch_50">
    <path d="M 549.1572 89.721996 
L 549.42124 89.721996 
L 549.42124 83.675017 
L 549.1572 83.675017 
z
" clip-path="url(#p5b193a4223)" style="fill: #1f77b4"/>
   </g>
   <g id="patch_51">
    <path d="M 549.1572 83.675017 
L 549.1572 83.675017 
L 549.1572 77.628038 
L 549.1572 77.628038 
z
" clip-path="url(#p5b193a4223)" style="fill: #1f77b4"/>
   </g>
   <g id="patch_52">
    <path d="M 549.1572 77.628038 
L 549.1572 77.628038 
L 549.1572 71.581059 
L 549.1572 71.581059 
z
" clip-path="url(#p5b193a4223)" style="fill: #1f77b4"/>
   </g>
   <g id="patch_53">
    <path d="M 549.1572 71.581059 
L 549.68528 71.581059 
L 549.68528 65.53408 
L 549.1572 65.53408 
z
" clip-path="url(#p5b193a4223)" style="fill: #1f77b4"/>
   </g>
   <g id="patch_54">
    <path d="M 549.1572 65.53408 
L 549.773293 65.53408 
L 549.773293 59.487101 
L 549.1572 59.487101 
z
" clip-path="url(#p5b193a4223)" style="fill: #1f77b4"/>
   </g>
   <g id="patch_55">
    <path d="M 549.1572 59.487101 
L 553.73389 59.487101 
L 553.73389 53.440122 
L 549.1572 53.440122 
z
" clip-path="url(#p5b193a4223)" style="fill: #1f77b4"/>
   </g>
   <g id="patch_56">
    <path d="M 549.1572 53.440122 
L 606.277816 53.440122 
L 606.277816 47.393142 
L 549.1572 47.393142 
z
" clip-path="url(#p5b193a4223)" style="fill: #1f77b4"/>
   </g>
   <g id="patch_57">
    <path d="M 549.1572 47.393142 
L 550.477399 47.393142 
L 550.477399 41.346163 
L 549.1572 41.346163 
z
" clip-path="url(#p5b193a4223)" style="fill: #1f77b4"/>
   </g>
   <g id="patch_58">
    <path d="M 549.1572 41.346163 
L 549.597266 41.346163 
L 549.597266 35.299184 
L 549.1572 35.299184 
z
" clip-path="url(#p5b193a4223)" style="fill: #1f77b4"/>
   </g>
   <g id="patch_59">
    <path d="M 549.1572 35.299184 
L 549.42124 35.299184 
L 549.42124 29.252205 
L 549.1572 29.252205 
z
" clip-path="url(#p5b193a4223)" style="fill: #1f77b4"/>
   </g>
   <g id="line2d_48">
    <path d="M 550.585288 304.458469 
L 552.969547 301.675485 
L 559.214301 298.8925 
L 572.745994 296.109515 
L 595.557059 293.326531 
L 623.78218 290.543546 
L 646.278947 287.760561 
L 651.040489 284.977576 
L 635.242727 282.194592 
L 607.848486 279.411607 
L 581.61086 276.628622 
L 563.876657 273.845638 
L 554.768957 271.062653 
L 551.070496 268.279668 
L 549.869035 265.496684 
L 549.603948 262.713699 
L 549.638114 259.930714 
L 549.718493 257.14773 
L 549.732417 254.364745 
L 549.652094 251.58176 
L 549.515935 248.798775 
L 549.389195 246.015791 
L 549.319976 243.232806 
L 549.318922 240.449821 
L 549.364382 237.666837 
L 549.417881 234.883852 
L 549.441741 232.100867 
L 549.417112 229.317883 
L 549.353644 226.534898 
L 549.280666 223.751913 
L 549.226497 220.968928 
L 549.204725 218.185944 
L 549.214598 215.402959 
L 549.246105 212.619974 
L 549.282683 209.83699 
L 549.306212 207.054005 
L 549.308473 204.27102 
L 549.302089 201.488036 
L 549.321873 198.705051 
L 549.422917 195.922066 
L 549.711896 193.139082 
L 550.517281 190.356097 
L 552.982209 187.573112 
L 560.583698 184.790127 
L 581.583737 182.007143 
L 629.765593 179.224158 
L 717.26659 176.441173 
L 837.205746 173.658189 
L 950.653522 170.875204 
L 1002.33756 168.092219 
L 962.781778 165.309235 
L 854.73181 162.52625 
L 732.654645 159.743265 
L 639.728818 156.960281 
L 587.097167 154.177296 
L 564.133232 151.394311 
L 556.734839 148.611326 
L 556.29462 145.828342 
L 559.540912 143.045357 
L 565.43939 140.262372 
L 572.847599 137.479388 
L 579.870088 134.696403 
L 584.467395 131.913418 
L 585.304736 129.130434 
L 582.196709 126.347449 
L 576.11974 123.564464 
L 568.829229 120.78148 
L 562.126441 117.998495 
L 557.14783 115.21551 
L 554.114023 112.432525 
L 552.606083 109.649541 
L 552.100589 106.866556 
L 552.391821 104.083571 
L 553.603136 101.300587 
L 555.746019 98.517602 
L 558.198912 95.734617 
L 559.746651 92.951633 
L 559.399812 90.168648 
L 557.245557 87.385663 
L 554.360877 84.602679 
L 551.901017 81.819694 
L 550.381332 79.036709 
L 549.702126 76.253724 
L 549.560899 73.47074 
L 549.771617 70.687755 
L 550.448439 67.90477 
L 552.245202 65.121786 
L 556.58008 62.338801 
L 565.206741 59.555816 
L 578.454288 56.772832 
L 593.054552 53.989847 
L 602.53464 51.206862 
L 601.625824 48.423878 
L 590.870597 45.640893 
L 576.115152 42.857908 
L 563.511087 40.074923 
L 555.664132 37.291939 
L 551.86867 34.508954 
L 550.35303 31.725969 
L 549.788947 28.942985 
L 549.540144 26.16 
" clip-path="url(#p5b193a4223)" style="fill: none; stroke: #ff7f0e; stroke-width: 1.5; stroke-linecap: square"/>
   </g>
   <g id="line2d_49">
    <path d="M 555.283901 304.458469 
L 564.990793 301.675485 
L 589.579157 298.8925 
L 640.874218 296.109515 
L 723.619956 293.326531 
L 820.397943 290.543546 
L 890.283754 287.760561 
L 894.838196 284.977576 
L 831.205429 282.194592 
L 734.782593 279.411607 
L 648.206446 276.628622 
L 592.494353 273.845638 
L 565.090694 271.062653 
L 554.394489 268.279668 
L 551.035183 265.496684 
L 550.292855 262.713699 
L 550.334854 259.930714 
L 550.48097 257.14773 
L 550.463507 254.364745 
L 550.239256 251.58176 
L 549.91227 248.798775 
L 549.627242 246.015791 
L 549.474658 243.232806 
L 549.460814 240.449821 
L 549.531657 237.666837 
L 549.610862 234.883852 
L 549.634126 232.100867 
L 549.576922 229.317883 
L 549.462966 226.534898 
L 549.342529 223.751913 
L 549.257577 220.968928 
L 549.223682 218.185944 
L 549.234811 215.402959 
L 549.273519 212.619974 
L 549.316243 209.83699 
L 549.340405 207.054005 
L 549.337876 204.27102 
L 549.32559 201.488036 
L 549.343764 198.705051 
L 549.451237 195.922066 
L 549.758008 193.139082 
L 550.602412 190.356097 
L 553.154198 187.573112 
L 560.929284 184.790127 
L 582.181472 182.007143 
L 630.533943 179.224158 
L 717.86159 176.441173 
L 837.337092 173.658189 
L 950.766637 170.875204 
L 1003.704629 168.092219 
L 966.364021 165.309235 
L 859.991895 162.52625 
L 737.91662 159.743265 
L 643.627691 156.960281 
L 589.386007 154.177296 
L 565.339065 151.394311 
L 557.520006 148.611326 
L 557.219803 145.828342 
L 561.187159 143.045357 
L 568.538989 140.262372 
L 578.180373 137.479388 
L 587.939812 134.696403 
L 595.177002 131.913418 
L 597.839379 129.130434 
L 595.185703 126.347449 
L 588.048404 123.564464 
L 578.559137 120.78148 
L 569.255703 117.998495 
L 562.003846 115.21551 
L 557.428309 112.432525 
L 555.132244 109.649541 
L 554.452926 106.866556 
L 555.202183 104.083571 
L 557.788506 101.300587 
L 562.445894 98.517602 
L 568.101644 95.734617 
L 572.205235 92.951633 
L 572.312666 90.168648 
L 568.147036 87.385663 
L 561.842765 84.602679 
L 556.101048 81.819694 
L 552.372446 79.036709 
L 550.64228 76.253724 
L 550.29843 73.47074 
L 550.958357 70.687755 
L 553.081213 67.90477 
L 558.88232 65.121786 
L 573.375136 62.338801 
L 603.385346 59.555816 
L 651.635402 56.772832 
L 708.061504 53.989847 
L 749.046352 51.206862 
L 752.349925 48.423878 
L 716.152138 45.640893 
L 660.683172 42.857908 
L 610.499815 40.074923 
L 577.872634 37.291939 
L 561.509101 34.508954 
L 554.778446 31.725969 
L 552.220479 28.942985 
L 551.07192 26.16 
" clip-path="url(#p5b193a4223)" style="fill: none; stroke: #2ca02c; stroke-width: 1.5; stroke-linecap: square"/>
   </g>
  </g>
 </g>
 <defs>
  <clipPath id="p8f73d0c61d">
   <rect x="53.8896" y="26.16" width="477.2748" height="291.88"/>
  </clipPath>
  <clipPath id="p5b193a4223">
   <rect x="549.1572" y="26.16" width="477.2748" height="291.88"/>
  </clipPath>
 </defs>
</svg>
