<?xml version="1.0" encoding="UTF-8"?>
<svg xmlns="http://www.w3.org/2000/svg" xmlns:xlink="http://www.w3.org/1999/xlink" width="35.2512pt" height="35.2416pt" viewBox="0 0 35.2512 35.2416" version="1.1">
<g id="surface1">
<path style="fill:none;stroke-width:2;stroke-linecap:round;stroke-linejoin:miter;stroke:rgb(89.498901%,23.03009%,35.812378%);stroke-opacity:1;stroke-miterlimit:10;" d="M -0.00123125 -0.0018625 L -0.00123125 13.8497 " transform="matrix(1,0,0,-1,19.9192,26.7872)"/>
<path style="fill:none;stroke-width:2;stroke-linecap:round;stroke-linejoin:miter;stroke:rgb(89.498901%,23.03009%,35.812378%);stroke-opacity:1;stroke-miterlimit:10;" d="M 0.00021875 -0.0018625 L 0.00021875 18.334075 " transform="matrix(1,0,0,-1,5.824,26.7872)"/>
<path style="fill:none;stroke-width:2;stroke-linecap:round;stroke-linejoin:miter;stroke:rgb(89.498901%,23.03009%,35.812378%);stroke-opacity:1;stroke-miterlimit:10;" d="M -0.00170625 -0.0018625 L -0.00170625 18.334075 " transform="matrix(1,0,0,-1,10.6228,26.7872)"/>
<path style="fill:none;stroke-width:2;stroke-linecap:round;stroke-linejoin:miter;stroke:rgb(89.498901%,23.03009%,35.812378%);stroke-opacity:1;stroke-miterlimit:10;" d="M 0.00175625 -0.0018625 L 0.00175625 16.677825 " transform="matrix(1,0,0,-1,15.2209,26.7872)"/>
<path style="fill:none;stroke-width:2;stroke-linecap:round;stroke-linejoin:miter;stroke:rgb(89.498901%,23.03009%,35.812378%);stroke-opacity:1;stroke-miterlimit:10;" d="M -0.0007125 -0.0018625 L -0.0007125 11.365325 " transform="matrix(1,0,0,-1,24.6179,26.7872)"/>
<path style="fill:none;stroke-width:2;stroke-linecap:round;stroke-linejoin:miter;stroke:rgb(89.498901%,23.03009%,35.812378%);stroke-opacity:1;stroke-miterlimit:10;" d="M -0.00029375 -0.0018625 L -0.00029375 8.341887 " transform="matrix(1,0,0,-1,29.3167,26.7872)"/>
</g>
</svg>
